<?xml version="1.0" encoding="UTF-8" standalone="no"?>
<!-- Created with Inkscape (http://www.inkscape.org/) -->
<svg
   xmlns:dc="http://purl.org/dc/elements/1.1/"
   xmlns:cc="http://creativecommons.org/ns#"
   xmlns:rdf="http://www.w3.org/1999/02/22-rdf-syntax-ns#"
   xmlns:svg="http://www.w3.org/2000/svg"
   xmlns="http://www.w3.org/2000/svg"
   xmlns:sodipodi="http://sodipodi.sourceforge.net/DTD/sodipodi-0.dtd"
   xmlns:inkscape="http://www.inkscape.org/namespaces/inkscape"
   id="svg2"
   sodipodi:version="0.32"
   inkscape:version="0.46"
   width="291.25"
   height="500"
   xml:space="preserve"
   sodipodi:docname="Coat_of_arms_of_Kirov.svg"
   inkscape:output_extension="org.inkscape.output.svg.inkscape"><metadata
     id="metadata7"><rdf:RDF><cc:Work
         rdf:about=""><dc:format>image/svg+xml</dc:format><dc:type
           rdf:resource="http://purl.org/dc/dcmitype/StillImage" /></cc:Work></rdf:RDF></metadata><defs
     id="defs5"><inkscape:perspective
       sodipodi:type="inkscape:persp3d"
       inkscape:vp_x="0 : 526.18109 : 1"
       inkscape:vp_y="0 : 1000 : 0"
       inkscape:vp_z="744.09448 : 526.18109 : 1"
       inkscape:persp3d-origin="372.04724 : 350.78739 : 1"
       id="perspective9" /></defs><sodipodi:namedview
     inkscape:window-height="742"
     inkscape:window-width="1024"
     inkscape:pageshadow="2"
     inkscape:pageopacity="0.0"
     guidetolerance="10.0"
     gridtolerance="10.0"
     objecttolerance="10.0"
     borderopacity="1.0"
     bordercolor="#666666"
     pagecolor="#ffffff"
     id="base"
     showgrid="false"
     inkscape:zoom="2.6134666"
     inkscape:cx="120.7819"
     inkscape:cy="89.513133"
     inkscape:window-x="-4"
     inkscape:window-y="-4"
     inkscape:current-layer="g11" /><g
     id="g11"
     inkscape:groupmode="layer"
     inkscape:label="Coast_of_arms_of_Kirov"
     transform="matrix(1.25,0,0,-1.25,0,500)"><path
       d="M 0,406.4 L 0.1,406.4 C 0.1,406.4 0,406.4 0,406.3 L 0,406.4 z"
       style="fill:#ffcc01;fill-opacity:1;fill-rule:nonzero;stroke:#ffcc01;stroke-width:0.09375;stroke-linecap:butt;stroke-linejoin:miter;stroke-miterlimit:10;stroke-dasharray:none;stroke-opacity:1"
       id="path13" /><path
       style="fill:#030000;fill-opacity:1;fill-rule:nonzero;stroke:#030000;stroke-width:0.1171875;stroke-linecap:butt;stroke-linejoin:miter;stroke-miterlimit:10;stroke-dasharray:none;stroke-opacity:1"
       d="M 147.75 3.875 C 139.95312 3.96875 132.125 4.5 124.375 5.375 C 124.375 23.125 125.25 40.75 125.625 58.375 C 123.625 58.625 121.75 58.75 119.75 59 C 118.625 45.375 117.75 31.75 116.75 18 C 116.625 11.75 110 5.625 103.625 7.125 C 91.875 8.625 80.5 11.625 69.125 14.375 C 71.5 29.375 75.25 44.375 77.5 59.5 C 77.625 62.125 80.125 66.875 75.875 67.375 C 72.875 54.125 70.125 40.75 66.875 27.5 C 63.375 24 58.875 21.375 54.5 18.875 C 47.75 20.625 41.5 24.125 35 26.875 C 29.25 29.875 23.125 32.25 18.125 36.5 C 26.75 55.875 34.25 75.75 39.125 96.375 C 38.25 96.625 36.375 97.125 35.5 97.375 C 34.125 102.625 31 107.5 30.625 112.875 C 32.375 118 35.625 122.375 38.75 126.75 C 25.75 126.375 12.875 126.625 0 126.625 L 0 419.25 C 1 429.5 2.75 440.5 9.625 448.75 C 17.375 456.75 29.25 459.5 40.125 460 C 56.375 460.125 72.5 460 88.75 460 C 100.625 460.125 112.625 459.5 124.5 461.625 C 130.625 462.625 138.03125 467.09376 139.53125 473.59375 C 141.30869 480.11356 142.62062 484.67113 144.3125 491.9375 L 145.625 496.0625 L 146.8125 492 C 148.5625 484.5 150.625 476.625 153.625 469.5 C 158.375 461.875 168.25 461.125 176.25 460.375 C 198.75 459.5 221.25 460.25 243.75 460 C 256.25 460.375 269.875 458.625 279.875 450.5 C 288.25 442.5 290.125 430.25 291.25 419.25 L 291.25 126.625 C 280.25 126.625 269.375 126.5 258.375 126.625 C 257.5 125 256.5 123.5 255.5 121.875 C 256.75 120.625 258 119.5 259 118 C 259.5 115.875 257.875 114.125 257.125 112.25 C 258.5 109.75 260.625 107.375 260.5 104.375 C 259.875 102.375 257.75 101.5 256.375 100.125 C 262.25 77.875 270.875 56.375 278.625 34.75 C 268.5 28.75 257.5 24.25 246.25 20.75 C 242.625 19.125 239.5 22 236.375 23.25 C 233.625 24.75 230 25.625 229.625 29.25 C 226.25 41.75 223.125 54.25 220.5 66.875 C 219.75 66.75 218.25 66.625 217.5 66.5 C 219.625 49.25 224.25 32.375 226.75 15.25 C 214.75 11.25 202.25 8.75 189.75 6.125 C 186.125 9.625 179.875 12.25 179.875 18.25 C 178.5 31.75 177.125 45.375 176 58.875 C 173.875 58.875 171.75 58.75 169.625 58.75 C 170 40.875 171.25 22.875 171 5 C 163.3125 4.125 155.54688 3.78125 147.75 3.875 z M 153.96875 113.75 C 155.34375 113.70312 156.6875 114.0625 157.875 115 C 155.25 115.125 152.625 115 149.875 114.875 C 151.1875 114.25 152.59375 113.79688 153.96875 113.75 z M 194.125 115.5 C 195.375 116.125 196.625 117 197.875 117.875 C 194.75 117.625 191.625 117.25 188.625 116.625 C 190.5 116.25 192.25 115.5 194.125 115.5 z M 83.71875 117.125 C 84.955078 117.11328 86.375 117.78125 85.625 119 C 84.25 121.25 79.25 119 82.625 117.375 C 82.90625 117.21875 83.306641 117.12891 83.71875 117.125 z M 143.75 120 C 168.625 120.125 193.5 121.625 217.875 126.375 C 169 126.875 120 126.75 71.125 126.5 C 95 121.75 119.375 120.25 143.75 120 z "
       transform="matrix(0.8,0,0,-0.8,0,400)"
       id="path17" /><path
       d="M 101.5,393.9 C 106.4,394.3 111.3,394.7 116.3,394.7 C 116.29177,388.34589 116.19177,381.50476 116.23766,375.20476 C 111.21411,374.9342 106.7,375.2 101.9,374.9 C 101.7,381.2 101.6,387.5 101.5,393.9 z"
       style="fill:#ffcc00;fill-opacity:1;fill-rule:nonzero;stroke:#ffcc00;stroke-width:0.09375;stroke-linecap:butt;stroke-linejoin:miter;stroke-miterlimit:10;stroke-dasharray:none;stroke-opacity:1"
       id="path19"
       sodipodi:nodetypes="ccccc" /><path
       d="M 117.71479,394.71736 C 118.23153,394.71736 118.77475,394.74179 119.5,394.74179 C 119.7,388.24179 119.6,380.8 119.6,374.2 C 124.4,374.1 129.1,374.1 133.9,374 C 133.8,373.5 133.90611,372.65305 133.80611,372.15305 C 123.25031,372.15305 112.67929,371.7 102.2,371.7 C 102.2,372.2 102.1,373.1 102.1,373.6 C 107.2,373.9 112.3,374.1 117.4,374.1 C 117.4,381.1 117.41479,387.71736 117.71479,394.71736 z"
       style="fill:#ffcc00;fill-opacity:1;fill-rule:nonzero;stroke:#ffcc00;stroke-width:0.09375;stroke-linecap:butt;stroke-linejoin:miter;stroke-miterlimit:10;stroke-dasharray:none;stroke-opacity:1"
       id="path21"
       sodipodi:nodetypes="ccccccccc" /><path
       d="M 120.85563,394.7 C 125.35563,394.9 130.2,394.8 134.7,394.5 C 134.8,388 134.00238,381.6317 134.00238,375.1317 C 129.67088,375.14707 126.1001,375.13918 120.89118,375.19329 C 120.89118,381.68616 120.65563,388.4 120.85563,394.7 z"
       style="fill:#ffcc00;fill-opacity:1;fill-rule:nonzero;stroke:#ffcc00;stroke-width:0.09375;stroke-linecap:butt;stroke-linejoin:miter;stroke-miterlimit:10;stroke-dasharray:none;stroke-opacity:1"
       id="path23"
       sodipodi:nodetypes="ccccc" /><path
       d="M 152.5,392.9 C 156.6,392.3 160.6,391.2 164.7,390.4 C 163.8,384.1 162.9,377.8 161.7,371.5 C 157.9,372 154.2,372.7 150.4,373.2 C 150.8,379.8 151.6,386.4 152.5,392.9 z"
       style="fill:#ffcc00;fill-opacity:1;fill-rule:nonzero;stroke:#ffcc00;stroke-width:0.09375;stroke-linecap:butt;stroke-linejoin:miter;stroke-miterlimit:10;stroke-dasharray:none;stroke-opacity:1"
       id="path25" /><path
       d="M 73.7,390.9 C 77.5,391.8 81.5,392.4 85.4,392.9 C 86.4,386.3 86.9,379.7 87.6,373.1 C 83.9,372.6 80.3,372 76.6,371.6 C 75.7,378 74.7,384.4 73.7,390.9 z"
       style="fill:#ffcc00;fill-opacity:1;fill-rule:nonzero;stroke:#ffcc00;stroke-width:0.09375;stroke-linecap:butt;stroke-linejoin:miter;stroke-miterlimit:10;stroke-dasharray:none;stroke-opacity:1"
       id="path27" /><path
       d="M 71.1,390.9 C 71.4,390.6 72,390.1 72.3,389.8 C 74.1,383.4 74.2,376.6 75.9,370.2 C 80.1,370.3 84.2,371.7 88.5,371.7 C 87.5,369.4 84.8,369.8 82.9,369.2 C 75.6,368.2 68.4,366.1 61,365.2 C 64.1,368.7 69.4,368.2 73.6,369.5 C 72.9,376.6 71.1,383.7 71.1,390.9 z"
       style="fill:#ffcc00;fill-opacity:1;fill-rule:nonzero;stroke:#ffcc00;stroke-width:0.09375;stroke-linecap:butt;stroke-linejoin:miter;stroke-miterlimit:10;stroke-dasharray:none;stroke-opacity:1"
       id="path29" /><path
       d="M 145.9,386.4 C 146,388.9 148.8,389.9 150.3,391.4 C 149.8,385.4 149,379.5 148.5,373.5 C 147.1,372.7 145.7,371.9 144.3,371.1 C 144.8,376.2 145.4,381.3 145.9,386.4 z"
       style="fill:#ffcc00;fill-opacity:1;fill-rule:nonzero;stroke:#ffcc00;stroke-width:0.09375;stroke-linecap:butt;stroke-linejoin:miter;stroke-miterlimit:10;stroke-dasharray:none;stroke-opacity:1"
       id="path31" /><path
       d="M 165.7,390 C 166.2,390 167.3,389.9 167.8,389.9 C 166.9,383 165.7,376.2 164.7,369.4 C 167.8,368.9 170.9,368.4 174,367.6 C 175.1,367.4 175.9,366.7 176.3,365.5 C 171.5,365.7 166.9,367.3 162.2,368 C 158.3,368.8 154.3,369 150.5,370.1 C 150.3,370.5 149.7,371.4 149.4,371.8 C 153.8,371.5 158.1,370.7 162.4,369.9 C 163.7,376.5 164.7,383.3 165.7,390 z"
       style="fill:#ffcc00;fill-opacity:1;fill-rule:nonzero;stroke:#ffcc00;stroke-width:0.09375;stroke-linecap:butt;stroke-linejoin:miter;stroke-miterlimit:10;stroke-dasharray:none;stroke-opacity:1"
       id="path33" /><path
       d="M 57.4,387.4 C 61.4,388.1 65.4,389.2 69.3,390.2 C 70.3,383.6 71.4,377 72.4,370.4 C 68.7,369.8 65.1,369 61.5,367.9 C 59.8,374.3 58.5,380.8 57.4,387.4 z"
       style="fill:#ffcc00;fill-opacity:1;fill-rule:nonzero;stroke:#ffcc00;stroke-width:0.09375;stroke-linecap:butt;stroke-linejoin:miter;stroke-miterlimit:10;stroke-dasharray:none;stroke-opacity:1"
       id="path35" /><path
       d="M 168.9,389.3 C 172.4,388.7 175.9,387.9 179.2,386.5 C 178.5,380.4 177.1,374.4 176.1,368.3 C 172.8,369.2 169.4,369.9 166.1,370.6 C 166.8,376.9 168,383.1 168.9,389.3 z"
       style="fill:#ffcc00;fill-opacity:1;fill-rule:nonzero;stroke:#ffcc00;stroke-width:0.09375;stroke-linecap:butt;stroke-linejoin:miter;stroke-miterlimit:10;stroke-dasharray:none;stroke-opacity:1"
       id="path37" /><path
       d="M 30.9,378.1 C 34.7,379.6 38.5,381.3 42.4,382.5 C 44.2,376.3 45.6,370.1 47.5,364 C 43.8,362.4 40,361.1 36.2,359.9 C 34.6,366 32.2,371.9 30.9,378.1 z"
       style="fill:#ffcc00;fill-opacity:1;fill-rule:nonzero;stroke:#ffcc00;stroke-width:0.09375;stroke-linecap:butt;stroke-linejoin:miter;stroke-miterlimit:10;stroke-dasharray:none;stroke-opacity:1"
       id="path39" /><path
       d="M 185.6,377.8 C 188.2,379.2 190.8,380.5 193.5,381.6 C 192.4,375.7 190.6,370 189.2,364.2 C 186.8,363.3 184.4,362.3 182,361.4 C 183,366.9 184.6,372.3 185.6,377.8 z"
       style="fill:#ffcc00;fill-opacity:1;fill-rule:nonzero;stroke:#ffcc00;stroke-width:0.09375;stroke-linecap:butt;stroke-linejoin:miter;stroke-miterlimit:10;stroke-dasharray:none;stroke-opacity:1"
       id="path41" /><path
       d="M 190.6,364 C 192.3,370 193.6,376.1 195.4,382 C 204,379.2 212.3,375.6 220.2,371.1 C 218.4,365.3 216,359.8 214,354.1 C 206.2,357.4 198.5,360.8 190.6,364 z"
       style="fill:#ffcc00;fill-opacity:1;fill-rule:nonzero;stroke:#ffcc00;stroke-width:0.09375;stroke-linecap:butt;stroke-linejoin:miter;stroke-miterlimit:10;stroke-dasharray:none;stroke-opacity:1"
       id="path43" /><path
       d="M 28.2,377.5 C 29.3,377.2 30,376.6 30.2,375.5 C 32,369.8 33.7,364.1 35.5,358.4 C 40,359.3 44,361.5 48.5,362.4 C 46.8,359.9 43.4,359.7 40.9,358.4 C 35.1,356.5 29.7,353.3 23.6,352.5 C 26.1,355.8 31.6,355.3 33.9,358.4 C 32.8,365 29.5,371 28.2,377.5 z"
       style="fill:#ffcc00;fill-opacity:1;fill-rule:nonzero;stroke:#ffcc00;stroke-width:0.09375;stroke-linecap:butt;stroke-linejoin:miter;stroke-miterlimit:10;stroke-dasharray:none;stroke-opacity:1"
       id="path45" /><path
       d="M 17.3,370.5 C 20.4,372.4 23.5,374.3 26.9,375.7 C 28.8,370 30.8,364.4 32.8,358.7 C 29.8,357.3 26.7,356 23.6,354.7 C 21.4,359.9 19.3,365.2 17.3,370.5 z"
       style="fill:#ffcc00;fill-opacity:1;fill-rule:nonzero;stroke:#ffcc00;stroke-width:0.09375;stroke-linecap:butt;stroke-linejoin:miter;stroke-miterlimit:10;stroke-dasharray:none;stroke-opacity:1"
       id="path47" /><path
       d="M 144.13528,369.07879 C 145.79762,370.12176 147.03766,370.92706 148.63766,372.02706 C 148.59177,371.4 148.46672,370.4473 148.43528,369.92175 C 147.43593,369.27784 144.93108,367.87329 143.93657,367.26624 C 144.07556,368.93105 144.05393,368.42214 144.13528,369.07879 z"
       style="fill:#ffcc00;fill-opacity:1;fill-rule:nonzero;stroke:#ffcc00;stroke-width:0.09375;stroke-linecap:butt;stroke-linejoin:miter;stroke-miterlimit:10;stroke-dasharray:none;stroke-opacity:1"
       id="path49"
       sodipodi:nodetypes="ccccc" /><path
       d="M 102.4,370.5 C 112.8,370.9 123.3,371.2 133.8,370.8 C 134.3,364.8 133.7,358.8 133.7,352.8 C 123.3,353.1 112.9,353.2 102.6,352.7 C 102.5,358.6 102.3,364.5 102.4,370.5 z"
       style="fill:#ffcc00;fill-opacity:1;fill-rule:nonzero;stroke:#ffcc00;stroke-width:0.09375;stroke-linecap:butt;stroke-linejoin:miter;stroke-miterlimit:10;stroke-dasharray:none;stroke-opacity:1"
       id="path51" /><path
       d="M 62.2,363.7 C 70.8,365.8 79.6,367.9 88.5,368.3 C 88.8,362.7 89.7,357.1 89.6,351.4 C 81.2,350.1 72.9,348.4 64.6,346.8 C 63.9,352.5 62.7,358 62.2,363.7 z"
       style="fill:#ffcc00;fill-opacity:1;fill-rule:nonzero;stroke:#ffcc00;stroke-width:0.09375;stroke-linecap:butt;stroke-linejoin:miter;stroke-miterlimit:10;stroke-dasharray:none;stroke-opacity:1"
       id="path53" /><path
       d="M 149.7,368.5 C 158.2,367.3 166.7,365.9 175.1,363.9 C 174.4,358.1 173,352.5 172.2,346.7 C 164,348.2 155.9,350.4 147.6,351.4 C 148.2,357.1 149,362.8 149.7,368.5 z"
       style="fill:#ffcc00;fill-opacity:1;fill-rule:nonzero;stroke:#ffcc00;stroke-width:0.09375;stroke-linecap:butt;stroke-linejoin:miter;stroke-miterlimit:10;stroke-dasharray:none;stroke-opacity:1"
       id="path55" /><path
       d="M 144,365.4 C 145.1,366.6 146.8,367 148.2,367.7 C 147.6,362.5 146.9,357.2 146.4,352 C 145.4,352 143.4,352 142.4,352 C 142.8,356.5 143,361 144,365.4 z"
       style="fill:#ffcc00;fill-opacity:1;fill-rule:nonzero;stroke:#ffcc00;stroke-width:0.09375;stroke-linecap:butt;stroke-linejoin:miter;stroke-miterlimit:10;stroke-dasharray:none;stroke-opacity:1"
       id="path57" /><path
       d="M 181.4,359.8 C 183.8,360.8 186.3,361.8 188.8,362.5 C 187.1,360.1 183.9,359.9 181.4,358.8 C 181.4,359 181.4,359.6 181.4,359.8 z"
       style="fill:#ffcc00;fill-opacity:1;fill-rule:nonzero;stroke:#ffcc00;stroke-width:0.09375;stroke-linecap:butt;stroke-linejoin:miter;stroke-miterlimit:10;stroke-dasharray:none;stroke-opacity:1"
       id="path59" /><path
       d="M 189.7,362.2 C 195.4,360.9 200.7,358.4 206,356.3 C 208.8,355 211.9,354.2 213.9,351.8 C 209.7,352.6 206.1,355.2 202.1,356.7 C 198.4,358.3 194.3,359.3 190.5,360.9 C 190.3,361.2 189.9,361.9 189.7,362.2 z"
       style="fill:#ffcc00;fill-opacity:1;fill-rule:nonzero;stroke:#ffcc00;stroke-width:0.09375;stroke-linecap:butt;stroke-linejoin:miter;stroke-miterlimit:10;stroke-dasharray:none;stroke-opacity:1"
       id="path61" /><path
       d="M 25.2,350.9 C 32.9,353.9 40.6,356.9 48.3,359.8 C 50,354.4 51.4,348.9 52.7,343.3 C 45.3,340.9 37.7,338.8 30.5,335.7 C 28.3,340.6 27,345.8 25.2,350.9 z"
       style="fill:#ffcc00;fill-opacity:1;fill-rule:nonzero;stroke:#ffcc00;stroke-width:0.09375;stroke-linecap:butt;stroke-linejoin:miter;stroke-miterlimit:10;stroke-dasharray:none;stroke-opacity:1"
       id="path63" /><path
       d="M 180.8,357 C 183,357.8 185.3,358.5 187.7,359.2 C 186.3,354.1 184.7,349 183.4,343.9 C 181.6,344.3 179.9,344.8 178.2,345.2 C 179,349.1 180,353 180.8,357 z"
       style="fill:#ffcc00;fill-opacity:1;fill-rule:nonzero;stroke:#ffcc00;stroke-width:0.09375;stroke-linecap:butt;stroke-linejoin:miter;stroke-miterlimit:10;stroke-dasharray:none;stroke-opacity:1"
       id="path65" /><path
       d="M 185.2,343.1 C 186.5,348.5 187.9,353.9 189.5,359.3 C 197.4,356.8 205.3,353.9 212.8,350.3 C 211,345.3 209.4,340.3 207.7,335.3 C 200.1,337.6 192.9,340.8 185.2,343.1 z"
       style="fill:#ffcc00;fill-opacity:1;fill-rule:nonzero;stroke:#ffcc00;stroke-width:0.09375;stroke-linecap:butt;stroke-linejoin:miter;stroke-miterlimit:10;stroke-dasharray:none;stroke-opacity:1"
       id="path67" /><path
       d="M 87.9,349.1 C 106.1,352.6 124.7,351.9 143,350.4 C 164.8,348 186.2,342.1 206.5,333.9 C 206.7,333.5 207,332.7 207.2,332.4 C 202.6,333.5 198.2,335.4 193.6,336.9 C 182.5,340.7 171.1,343.7 159.6,345.9 C 158.3,342.7 159.9,337.6 156.2,335.9 C 156.4,339.4 157.1,342.9 157.7,346.3 C 145.4,348.8 132.7,349.6 120.2,349.7 C 120.2,346.4 120.1,343.1 119.2,340 C 116.9,342.7 118.1,346.5 117.8,349.8 C 105.3,349.9 92.7,348.8 80.5,346.1 C 81,342.8 81.6,339.5 81.5,336.2 C 81.1,336 80.3,335.6 80,335.5 C 79.3,339 78.9,342.5 78.3,346 C 66.7,344.3 55.4,341.2 44.4,337.3 C 44.8,334.3 47,330.9 45.3,328 C 44.4,330.9 43.7,334 43,337 C 38.6,336 34.6,333.7 30.1,332.9 C 31.2,334.4 32.8,335.5 34.6,336 C 52,341.8 69.8,346.2 87.9,349.1 z"
       style="fill:#ffcc00;fill-opacity:1;fill-rule:nonzero;stroke:#ffcc00;stroke-width:0.09375;stroke-linecap:butt;stroke-linejoin:miter;stroke-miterlimit:10;stroke-dasharray:none;stroke-opacity:1"
       id="path69" /><path
       d="M 82.2,345.4 C 93.6,347.2 105.2,348.8 116.7,348.4 C 116.8,345.9 116.8,343.3 116.7,340.8 C 113.7,339.8 110.9,338.5 108.2,336.9 C 106.5,337.5 104.8,337.7 103,337.8 C 102.9,339.1 102.8,340.3 102.6,341.5 C 96.4,338.3 89.1,339.7 82.6,337.2 C 82.4,339.9 82.2,342.6 82.2,345.4 z"
       style="fill:#ffcc00;fill-opacity:1;fill-rule:nonzero;stroke:#ffcc00;stroke-width:0.09375;stroke-linecap:butt;stroke-linejoin:miter;stroke-miterlimit:10;stroke-dasharray:none;stroke-opacity:1"
       id="path71" /><path
       d="M 121.6,348.2 C 133.1,348.2 144.6,347.3 156,345.5 C 155.7,342.5 155.4,339.5 154.9,336.5 C 150.8,336 146.8,335.3 142.9,334 C 141.9,335 140.8,335.9 139.7,336.7 C 139.7,338.2 139.6,339.8 139.6,341.3 C 133.6,339.3 127.4,339.7 121.3,340.9 C 121.4,343.4 121.4,345.8 121.6,348.2 z"
       style="fill:#ffcc00;fill-opacity:1;fill-rule:nonzero;stroke:#ffcc00;stroke-width:0.09375;stroke-linecap:butt;stroke-linejoin:miter;stroke-miterlimit:10;stroke-dasharray:none;stroke-opacity:1"
       id="path73" /><path
       d="M 46,336.5 C 56.1,339.8 66.4,342.8 77,344.3 C 77.5,341.1 78.1,337.9 78.6,334.6 C 77.2,334.6 75.9,334.5 74.6,334.5 C 74.2,335.8 73.9,337 73.4,338.2 C 68.4,332.5 59.1,335.2 54.7,328.7 C 53.1,328.5 51.5,328.3 49.9,328.1 C 49.4,329.5 49.1,331.3 47,331 C 46.7,332.8 46.3,334.7 46,336.5 z"
       style="fill:#ffcc00;fill-opacity:1;fill-rule:nonzero;stroke:#ffcc00;stroke-width:0.09375;stroke-linecap:butt;stroke-linejoin:miter;stroke-miterlimit:10;stroke-dasharray:none;stroke-opacity:1"
       id="path75" /><path
       d="M 160.6,344.3 C 176.3,342 191.3,336.7 205.9,330.8 C 205.3,328.3 204.6,325.7 204,323.2 C 201.9,323.8 199.9,324.5 197.9,325 C 191,326.1 184.3,330.1 177.1,328.2 C 175.9,329 174.6,329.8 173.3,330.5 C 173.4,331.7 173.4,333 173.4,334.2 C 168.6,333 163.7,333.6 159.1,335.5 C 159.6,338.4 160.1,341.3 160.6,344.3 z"
       style="fill:#ffcc00;fill-opacity:1;fill-rule:nonzero;stroke:#ffcc00;stroke-width:0.09375;stroke-linecap:butt;stroke-linejoin:miter;stroke-miterlimit:10;stroke-dasharray:none;stroke-opacity:1"
       id="path77" /><path
       d="M 98.4,334 C 99.1,336.2 98.6,339.7 101.7,340 C 100.6,334.8 97.5,330.1 93.5,326.7 C 91.2,324.5 88.1,326.8 85.6,327.3 C 88.2,328.6 91.2,328.7 94.1,329.3 C 93.8,329.8 93.2,330.8 92.9,331.3 C 94.7,332.2 96.5,333.2 98.4,334 z"
       style="fill:#ffcc00;fill-opacity:1;fill-rule:nonzero;stroke:#ffcc00;stroke-width:0.09375;stroke-linecap:butt;stroke-linejoin:miter;stroke-miterlimit:10;stroke-dasharray:none;stroke-opacity:1"
       id="path79" /><path
       d="M 109.4,335.4 C 113.4,338.8 118.8,340.1 124,339.1 C 127.6,338.4 131.2,338.7 134.8,338.2 C 134.8,337.9 134.7,337.4 134.7,337.1 C 130,334.1 124.6,332 119,331.5 C 113.3,331 107.6,329.3 103.5,325 C 99.5,324.6 94.1,324.5 91.8,320.7 C 97.5,321.1 103.3,322.6 109,321.4 C 114.2,319.3 118.6,315.7 124,313.9 C 122.5,312.6 121.1,311.3 119.7,309.9 C 118.5,309.9 117.7,311.2 116.7,311.6 C 118.3,312.3 119.8,312.9 121.4,313.7 C 117.9,313.8 114.3,313.2 110.8,314.2 C 104.9,315.9 99.4,319.3 93,319.3 C 94.9,317.7 97.6,317.7 99.2,315.7 C 101.3,313.3 102.9,310.6 104.9,308.1 C 103.3,308.6 101.3,308.2 100.1,309.4 C 98,311.4 97.1,314.4 94.9,316.3 C 92.9,318.2 90.7,319.7 88.8,321.7 C 91.9,322.9 95.2,323.6 98.2,325 C 100.4,327.1 102.6,329.4 105.7,329.9 C 108.4,330.4 109,333.1 109.4,335.4 z"
       style="fill:#ffcc00;fill-opacity:1;fill-rule:nonzero;stroke:#ffcc00;stroke-width:0.09375;stroke-linecap:butt;stroke-linejoin:miter;stroke-miterlimit:10;stroke-dasharray:none;stroke-opacity:1"
       id="path81" /><path
       d="M 136,338.4 C 136.7,338.7 137.9,339.3 138.6,339.7 C 137.7,337.4 136.5,335.3 135.2,333.3 C 134.5,333.6 133.8,334 133.2,334.4 C 134.2,335.7 135.3,336.9 136,338.4 z"
       style="fill:#ffcc00;fill-opacity:1;fill-rule:nonzero;stroke:#ffcc00;stroke-width:0.09375;stroke-linecap:butt;stroke-linejoin:miter;stroke-miterlimit:10;stroke-dasharray:none;stroke-opacity:1"
       id="path83" /><path
       d="M 81.3,334 C 86.6,337.7 93.2,337.1 99.2,338.7 C 94.2,331.5 85.6,328.7 77.9,325.8 C 73.9,323.2 69.8,320.7 66.2,317.6 C 71.7,317.9 77.7,319 82.9,316.5 C 85.8,315 88.9,313.7 92.2,312.8 C 87.3,310.3 81.4,311.6 76.7,313.9 C 73.2,315.5 67.9,315.9 65.5,312.4 C 65.7,314.4 65.4,316.5 64.5,318.3 C 68.2,319.7 70.7,322.9 72.6,326.2 L 72.1,324.2 C 74.6,325.4 77.1,326.6 79.7,327.8 C 80,329.9 79.2,332.8 81.3,334 z"
       style="fill:#ffcc00;fill-opacity:1;fill-rule:nonzero;stroke:#ffcc00;stroke-width:0.09375;stroke-linecap:butt;stroke-linejoin:miter;stroke-miterlimit:10;stroke-dasharray:none;stroke-opacity:1"
       id="path85" /><path
       d="M 103,335.8 C 104.7,336 106.3,335.7 107.7,334.6 C 107.3,334 106.6,332.7 106.3,332.1 C 105.8,331.8 104.9,331.3 104.5,331 C 104.1,331.1 103.2,331.1 102.8,331.1 C 102.5,331.7 101.9,332.8 101.5,333.4 C 101.9,334 102.6,335.2 103,335.8 z"
       style="fill:#ffcc00;fill-opacity:1;fill-rule:nonzero;stroke:#ffcc00;stroke-width:0.09375;stroke-linecap:butt;stroke-linejoin:miter;stroke-miterlimit:10;stroke-dasharray:none;stroke-opacity:1"
       id="path87" /><path
       d="M 31.5,331.7 C 34.9,333.1 38.3,334.4 41.8,335.4 C 42.6,332.5 43.5,329.6 44,326.6 C 40.4,325.2 36.9,323.7 33.8,321.5 C 32.9,324.8 32.2,328.2 31.5,331.7 z"
       style="fill:#ffcc00;fill-opacity:1;fill-rule:nonzero;stroke:#ffcc00;stroke-width:0.09375;stroke-linecap:butt;stroke-linejoin:miter;stroke-miterlimit:10;stroke-dasharray:none;stroke-opacity:1"
       id="path89" /><path
       d="M 136.3,333.1 C 136.7,335 139.1,334.7 140.6,335 C 140.6,333.2 141,330.7 138.9,329.9 C 137.1,329.5 135.6,331.4 136.3,333.1 z"
       style="fill:#ffcc00;fill-opacity:1;fill-rule:nonzero;stroke:#ffcc00;stroke-width:0.09375;stroke-linecap:butt;stroke-linejoin:miter;stroke-miterlimit:10;stroke-dasharray:none;stroke-opacity:1"
       id="path91" /><path
       d="M 61.6,331.9 C 65.4,332.7 69.3,333.6 72.9,335.3 C 72.2,329 68.7,323.4 63.8,319.6 C 61.5,318.2 58.8,317.8 56.4,317 L 57.1,314.8 C 54.3,317.3 50.9,316.6 47.7,315.7 C 53.6,317.8 61.6,319.3 63.2,326.5 C 60.2,323.6 57.3,320.1 53,319.4 C 56.1,321.4 58.4,324.5 58.8,328.2 C 58,327.6 56.4,326.6 55.6,326.1 C 56.2,329 58.6,331.3 61.6,331.9 z"
       style="fill:#ffcc00;fill-opacity:1;fill-rule:nonzero;stroke:#ffcc00;stroke-width:0.09375;stroke-linecap:butt;stroke-linejoin:miter;stroke-miterlimit:10;stroke-dasharray:none;stroke-opacity:1"
       id="path93" /><path
       d="M 143,332.5 C 148.3,334.1 154.1,335.5 159.6,333.8 C 163.6,332.5 167.8,331.8 172,332 C 170.4,329.7 169.3,326.4 166,326.4 C 166.3,329 169.3,329.4 170.5,331.5 C 166.3,330.2 162.5,327.4 158,327.1 C 152.5,326.6 146.7,327.5 141.3,325.6 C 143.9,324 146.8,323.1 149.6,321.8 C 150.9,319.9 148.2,320.5 147.1,320.7 C 144.1,321.8 142.1,324.9 138.8,325.1 C 134.4,325.5 130.1,324.7 125.8,324.6 C 128.4,325.5 131.1,326.5 133.6,327.8 C 133.8,328.2 134.1,329 134.3,329.4 C 134.3,328.6 134.2,327.7 134.2,326.9 C 136.4,327.8 138.7,328.3 141,328.6 C 141.7,329.9 142.4,331.1 143,332.5 z"
       style="fill:#ffcc00;fill-opacity:1;fill-rule:nonzero;stroke:#ffcc00;stroke-width:0.09375;stroke-linecap:butt;stroke-linejoin:miter;stroke-miterlimit:10;stroke-dasharray:none;stroke-opacity:1"
       id="path95" /><path
       d="M 74.5,332.8 C 75.5,332.8 76.4,332.7 77.4,332.7 C 78.3,330.6 78.1,328.8 76,327.6 C 75.3,328 73.9,328.7 73.2,329.1 C 73.7,330.4 74.1,331.6 74.5,332.8 z"
       style="fill:#ffcc00;fill-opacity:1;fill-rule:nonzero;stroke:#ffcc00;stroke-width:0.09375;stroke-linecap:butt;stroke-linejoin:miter;stroke-miterlimit:10;stroke-dasharray:none;stroke-opacity:1"
       id="path97" /><path
       d="M 123.9,331.1 C 127.1,332.2 130.4,333.2 133.8,332.4 C 132.6,331.3 131.5,330.2 130.4,329.1 C 128.4,330.3 126.1,330.6 123.9,331.1 z"
       style="fill:#ffcc00;fill-opacity:1;fill-rule:nonzero;stroke:#ffcc00;stroke-width:0.09375;stroke-linecap:butt;stroke-linejoin:miter;stroke-miterlimit:10;stroke-dasharray:none;stroke-opacity:1"
       id="path99" /><path
       d="M 115.7,330 C 119.6,330.3 123.6,328.9 127.5,329.6 C 128.2,329 128.8,328.4 129.5,327.9 C 128.1,327.2 126.7,326.5 125.2,325.9 C 125.1,326.2 124.9,326.7 124.8,327 C 121.7,327.5 118.2,327.9 115.7,330 z"
       style="fill:#ffcc00;fill-opacity:1;fill-rule:nonzero;stroke:#ffcc00;stroke-width:0.09375;stroke-linecap:butt;stroke-linejoin:miter;stroke-miterlimit:10;stroke-dasharray:none;stroke-opacity:1"
       id="path101" /><path
       d="M 96.9,325.9 C 95.7,327.1 98.2,328.9 99.3,329.4 C 100.8,328.4 98.2,326 96.9,325.9 z"
       style="fill:#ffcc00;fill-opacity:1;fill-rule:nonzero;stroke:#ffcc00;stroke-width:0.09375;stroke-linecap:butt;stroke-linejoin:miter;stroke-miterlimit:10;stroke-dasharray:none;stroke-opacity:1"
       id="path103" /><path
       d="M 108.4,326.5 C 110.9,328.9 114.7,328.3 117.8,327.3 C 120.1,326.6 122.7,326.7 124.9,325.5 C 121.4,324.7 117.6,325.3 114.2,323.9 C 112.3,324.8 110.3,325.6 108.4,326.5 z"
       style="fill:#ffcc00;fill-opacity:1;fill-rule:nonzero;stroke:#ffcc00;stroke-width:0.09375;stroke-linecap:butt;stroke-linejoin:miter;stroke-miterlimit:10;stroke-dasharray:none;stroke-opacity:1"
       id="path105" /><path
       d="M 170.7,326.3 C 171.2,328.8 173.9,328.2 175.7,327.9 C 175.4,326.5 175,325 174.5,323.6 C 172.9,323.8 170.6,324.2 170.7,326.3 z"
       style="fill:#ffcc00;fill-opacity:1;fill-rule:nonzero;stroke:#ffcc00;stroke-width:0.09375;stroke-linecap:butt;stroke-linejoin:miter;stroke-miterlimit:10;stroke-dasharray:none;stroke-opacity:1"
       id="path107" /><path
       d="M 35.5,320.8 C 39.4,323.9 44.8,324.5 48.4,328.1 C 49.2,322.3 46.9,316.5 42.1,312.9 C 45,312.2 48.1,313.2 51,313.7 C 56.6,314.5 61.1,309.9 66.7,310.6 C 65,307.3 62.1,304.9 58.6,303.6 C 56.8,305.1 54.8,306.2 52.9,307.4 C 55.6,307.1 58.2,306.3 60.9,305.6 C 60.7,306.1 60.5,307.2 60.4,307.8 C 62,307.9 63.6,308.3 64.7,309.6 C 60.2,308.9 55.5,308.7 51,309.5 C 48.1,310.1 45.4,308.6 42.8,307.8 C 42.3,309.1 42.2,310.7 41,311.7 C 39.7,312.3 38.2,312 36.8,312.1 C 38.7,316.2 43.4,318.2 45,322.5 C 42.9,320.9 40.9,319.2 39.1,317.3 C 36.2,314.6 34.9,310.7 32.6,307.6 C 32.4,310.4 34.3,312.6 35.7,314.9 C 36.2,316.9 34.9,318.9 35.5,320.8 z"
       style="fill:#ffcc00;fill-opacity:1;fill-rule:nonzero;stroke:#ffcc00;stroke-width:0.09375;stroke-linecap:butt;stroke-linejoin:miter;stroke-miterlimit:10;stroke-dasharray:none;stroke-opacity:1"
       id="path109" /><path
       d="M 50.2,321.6 C 50.2,323.2 49.7,326.2 52.2,326 C 53.7,326.5 55.2,324.5 54.3,323.2 C 53.7,321.3 51.7,321.8 50.2,321.6 z"
       style="fill:#ffcc00;fill-opacity:1;fill-rule:nonzero;stroke:#ffcc00;stroke-width:0.09375;stroke-linecap:butt;stroke-linejoin:miter;stroke-miterlimit:10;stroke-dasharray:none;stroke-opacity:1"
       id="path111" /><path
       d="M 177.5,324.8 C 179.2,327.7 182.9,327.3 185.9,327 C 189.7,326.4 193.2,324.7 197,324 C 195.4,321.9 191.9,322 189.5,321 C 184.1,320.6 178.7,320.9 173.3,319.8 C 169.9,320.8 166.3,321 162.8,320.7 C 164.3,321.4 165.7,322.1 167.2,322.9 C 170.6,322.3 175.1,321.6 177.5,324.8 z"
       style="fill:#ffcc00;fill-opacity:1;fill-rule:nonzero;stroke:#ffcc00;stroke-width:0.09375;stroke-linecap:butt;stroke-linejoin:miter;stroke-miterlimit:10;stroke-dasharray:none;stroke-opacity:1"
       id="path113" /><path
       d="M 77.8,324.1 C 81.8,326.9 86.6,324.4 91,325.2 C 89.1,324.3 87.2,323.2 85.1,322.7 C 82.7,323.3 80.3,323.9 77.8,324.1 z"
       style="fill:#ffcc00;fill-opacity:1;fill-rule:nonzero;stroke:#ffcc00;stroke-width:0.09375;stroke-linecap:butt;stroke-linejoin:miter;stroke-miterlimit:10;stroke-dasharray:none;stroke-opacity:1"
       id="path115" /><path
       d="M 145.9,324.9 C 147.6,325.2 149.3,325.5 151,325.7 C 153.7,324.2 156.7,323.3 159.6,322.3 C 158.7,321.9 156.8,321.1 155.9,320.7 C 152.8,322.7 149.1,323.3 145.9,324.9 z"
       style="fill:#ffcc00;fill-opacity:1;fill-rule:nonzero;stroke:#ffcc00;stroke-width:0.09375;stroke-linecap:butt;stroke-linejoin:miter;stroke-miterlimit:10;stroke-dasharray:none;stroke-opacity:1"
       id="path117" /><path
       d="M 154.6,325.2 C 158.7,326.3 162.9,325.8 167.1,325.7 C 165.3,324.5 163.5,323.4 161.8,322.4 C 160.1,324.6 157,324.2 154.6,325.2 z"
       style="fill:#ffcc00;fill-opacity:1;fill-rule:nonzero;stroke:#ffcc00;stroke-width:0.09375;stroke-linecap:butt;stroke-linejoin:miter;stroke-miterlimit:10;stroke-dasharray:none;stroke-opacity:1"
       id="path119" /><path
       d="M 105.2,324.7 C 108.2,324.5 111.3,324.1 114.2,323.3 C 111.5,321.1 107.4,322.5 105.2,324.7 z"
       style="fill:#ffcc00;fill-opacity:1;fill-rule:nonzero;stroke:#ffcc00;stroke-width:0.09375;stroke-linecap:butt;stroke-linejoin:miter;stroke-miterlimit:10;stroke-dasharray:none;stroke-opacity:1"
       id="path121" /><path
       d="M 115.8,318.7 C 114.7,320.9 115.4,323.1 117.8,324 C 118.4,323.7 119.7,323 120.3,322.7 C 120.5,321.8 120.7,321 120.9,320.1 C 119,320.4 117.3,319.7 115.8,318.7 z"
       style="fill:#ffcc00;fill-opacity:1;fill-rule:nonzero;stroke:#ffcc00;stroke-width:0.09375;stroke-linecap:butt;stroke-linejoin:miter;stroke-miterlimit:10;stroke-dasharray:none;stroke-opacity:1"
       id="path123" /><path
       d="M 124.4,322.3 C 129.3,323 134.3,324.2 139.1,322.6 C 145.4,320.5 150.1,315.4 156,312.5 C 155.7,310.6 153.6,310 152.1,309.4 C 147.9,308.2 143.5,307.5 139.1,307.9 C 137.4,310.7 135.7,313.4 134.2,316.2 C 138,314.5 142.1,313.2 146.3,313.6 C 142.1,314.9 137.9,316.1 134.2,318.6 C 131.4,320.9 127.3,320.2 124.4,322.3 z"
       style="fill:#ffcc00;fill-opacity:1;fill-rule:nonzero;stroke:#ffcc00;stroke-width:0.09375;stroke-linecap:butt;stroke-linejoin:miter;stroke-miterlimit:10;stroke-dasharray:none;stroke-opacity:1"
       id="path125" /><path
       d="M 73.9,321.3 C 77.1,322.7 80.7,322.1 84.1,322.3 C 83.1,321.3 82.1,320.3 81,319.5 C 78.5,319.8 76.2,320.6 73.9,321.3 z"
       style="fill:#ffcc00;fill-opacity:1;fill-rule:nonzero;stroke:#ffcc00;stroke-width:0.09375;stroke-linecap:butt;stroke-linejoin:miter;stroke-miterlimit:10;stroke-dasharray:none;stroke-opacity:1"
       id="path127" /><path
       d="M 199.2,322.2 C 200.1,321.5 201,320.8 201.7,320 C 201.2,318.4 198.3,317 197.3,318.7 C 197.8,320 198.5,321.1 199.2,322.2 z"
       style="fill:#ffcc00;fill-opacity:1;fill-rule:nonzero;stroke:#ffcc00;stroke-width:0.09375;stroke-linecap:butt;stroke-linejoin:miter;stroke-miterlimit:10;stroke-dasharray:none;stroke-opacity:1"
       id="path129" /><path
       d="M 84.6,321.2 C 85.8,321 87.1,321.1 88.1,320.5 C 89.2,318.9 88.4,317.1 87.3,315.8 C 85.9,316.5 84.4,317.3 83,318.1 C 83.4,318.8 84.2,320.4 84.6,321.2 z"
       style="fill:#ffcc00;fill-opacity:1;fill-rule:nonzero;stroke:#ffcc00;stroke-width:0.09375;stroke-linecap:butt;stroke-linejoin:miter;stroke-miterlimit:10;stroke-dasharray:none;stroke-opacity:1"
       id="path131" /><path
       d="M 122.1,321.4 C 127.3,319.3 129.5,313.9 131.6,309 C 129.3,309.5 127,310.3 125,311.4 C 125.7,312.4 126.4,313.5 127,314.6 C 125.4,315.1 123.9,315.6 122.4,316.2 C 122.3,317.9 122.2,319.7 122.1,321.4 z"
       style="fill:#ffcc00;fill-opacity:1;fill-rule:nonzero;stroke:#ffcc00;stroke-width:0.09375;stroke-linecap:butt;stroke-linejoin:miter;stroke-miterlimit:10;stroke-dasharray:none;stroke-opacity:1"
       id="path133" /><path
       d="M 150,319.3 C 151,321.4 153.1,320.4 154.7,319.8 C 154.5,318.7 154.4,317.5 154.1,316.4 C 151.9,315.4 149.9,317.1 150,319.3 z"
       style="fill:#ffcc00;fill-opacity:1;fill-rule:nonzero;stroke:#ffcc00;stroke-width:0.09375;stroke-linecap:butt;stroke-linejoin:miter;stroke-miterlimit:10;stroke-dasharray:none;stroke-opacity:1"
       id="path135" /><path
       d="M 26.1,310 C 26.2,313.6 28.1,316.6 29.6,319.6 C 29.1,314.8 33.2,309.1 28.5,305.2 C 27.1,308.3 28.4,311.5 28.7,314.6 C 27.7,313.2 26.9,311.6 26.1,310 z"
       style="fill:#ffcc00;fill-opacity:1;fill-rule:nonzero;stroke:#ffcc00;stroke-width:0.09375;stroke-linecap:butt;stroke-linejoin:miter;stroke-miterlimit:10;stroke-dasharray:none;stroke-opacity:1"
       id="path137" /><path
       d="M 128,319.6 C 129.4,318.8 131.4,318.4 132.1,316.6 C 133.6,313.3 135.6,310.3 138,307.6 C 136.3,307.9 134.6,308.2 132.9,308.5 C 131.9,312.5 129.5,315.9 128,319.6 z"
       style="fill:#ffcc00;fill-opacity:1;fill-rule:nonzero;stroke:#ffcc00;stroke-width:0.09375;stroke-linecap:butt;stroke-linejoin:miter;stroke-miterlimit:10;stroke-dasharray:none;stroke-opacity:1"
       id="path139" /><path
       d="M 155.8,320 C 157.9,320.1 160,320 162.1,320.2 L 161,318.5 C 168,319 175.4,316.7 180.1,311.4 C 181.7,309.6 183.7,308.3 185.4,306.7 C 182.3,306.7 179.2,306.7 176.3,307.9 C 169.5,310.2 164.7,316.7 157.1,316.9 C 159.9,313 163.1,309.4 166,305.5 C 164.5,305.7 162.6,305.5 161.8,307.1 C 160.5,308.5 160.3,311.5 157.7,310.7 C 158.9,312.2 158.9,313.6 157.4,314.8 C 155.9,316.1 156.3,318.3 155.8,320 z"
       style="fill:#ffcc00;fill-opacity:1;fill-rule:nonzero;stroke:#ffcc00;stroke-width:0.09375;stroke-linecap:butt;stroke-linejoin:miter;stroke-miterlimit:10;stroke-dasharray:none;stroke-opacity:1"
       id="path141" /><path
       d="M 179.2,319.1 C 181.2,318.3 183.2,317.6 185.2,316.8 C 184.5,316.8 183.1,316.8 182.4,316.8 C 181.3,317.6 180.3,318.4 179.2,319.1 z"
       style="fill:#ffcc00;fill-opacity:1;fill-rule:nonzero;stroke:#ffcc00;stroke-width:0.09375;stroke-linecap:butt;stroke-linejoin:miter;stroke-miterlimit:10;stroke-dasharray:none;stroke-opacity:1"
       id="path143" /><path
       d="M 188.9,318.7 C 190.4,318.8 191.8,318.9 193.3,319.1 C 191.1,317.6 188.6,316.6 185.9,316.5 C 187,317.1 188,317.8 188.9,318.7 z"
       style="fill:#ffcc00;fill-opacity:1;fill-rule:nonzero;stroke:#ffcc00;stroke-width:0.09375;stroke-linecap:butt;stroke-linejoin:miter;stroke-miterlimit:10;stroke-dasharray:none;stroke-opacity:1"
       id="path145" /><path
       d="M 31.4,318.1 C 32,318.1 33.2,318.2 33.8,318.2 C 33.9,317.5 34.2,316.2 34.3,315.6 C 33.2,315.3 32.1,315.1 31,314.8 C 31.1,315.9 31.3,317 31.4,318.1 z"
       style="fill:#ffcc00;fill-opacity:1;fill-rule:nonzero;stroke:#ffcc00;stroke-width:0.09375;stroke-linecap:butt;stroke-linejoin:miter;stroke-miterlimit:10;stroke-dasharray:none;stroke-opacity:1"
       id="path147" /><path
       d="M 59,314.4 C 58.5,317.3 63.7,318.4 63.8,315.3 C 63.7,314.7 63.5,313.5 63.5,312.9 C 61.8,313.1 59.3,312.1 59,314.4 z"
       style="fill:#ffcc00;fill-opacity:1;fill-rule:nonzero;stroke:#ffcc00;stroke-width:0.09375;stroke-linecap:butt;stroke-linejoin:miter;stroke-miterlimit:10;stroke-dasharray:none;stroke-opacity:1"
       id="path149" /><path
       d="M 90.2,317.7 C 91.8,316.9 93.2,315.8 94.4,314.5 C 93,314.6 91.6,314.7 90.2,314.8 C 90.2,315.5 90.2,317 90.2,317.7 z"
       style="fill:#ffcc00;fill-opacity:1;fill-rule:nonzero;stroke:#ffcc00;stroke-width:0.09375;stroke-linecap:butt;stroke-linejoin:miter;stroke-miterlimit:10;stroke-dasharray:none;stroke-opacity:1"
       id="path151" /><path
       d="M 176.3,317 C 177.8,317.3 180.8,316.9 180.8,315 C 179.4,314.3 176.4,315.3 176.3,317 z"
       style="fill:#ffcc00;fill-opacity:1;fill-rule:nonzero;stroke:#ffcc00;stroke-width:0.09375;stroke-linecap:butt;stroke-linejoin:miter;stroke-miterlimit:10;stroke-dasharray:none;stroke-opacity:1"
       id="path153" /><path
       d="M 100,317.2 C 104.6,315.4 108.4,312.1 112,308.8 C 110.3,308.7 108.7,308.6 107,308.7 C 104,310.9 101.8,314 100,317.2 z"
       style="fill:#ffcc00;fill-opacity:1;fill-rule:nonzero;stroke:#ffcc00;stroke-width:0.09375;stroke-linecap:butt;stroke-linejoin:miter;stroke-miterlimit:10;stroke-dasharray:none;stroke-opacity:1"
       id="path155" /><path
       d="M 188.9,312.4 C 189.9,314.5 191.9,315.7 193.9,316.5 C 193.5,316.1 192.6,315.2 192.2,314.7 C 192.4,314 192.5,313.3 192.7,312.6 C 191.4,312.5 190.2,312.4 188.9,312.4 z"
       style="fill:#ffcc00;fill-opacity:1;fill-rule:nonzero;stroke:#ffcc00;stroke-width:0.09375;stroke-linecap:butt;stroke-linejoin:miter;stroke-miterlimit:10;stroke-dasharray:none;stroke-opacity:1"
       id="path157" /><path
       d="M 192.7,313.9 C 197.2,315.3 202,314.9 206.3,316.9 C 205.7,314.7 204.9,311.6 202.1,311.5 C 198.8,311.7 196.1,314.3 192.7,313.9 z"
       style="fill:#ffcc00;fill-opacity:1;fill-rule:nonzero;stroke:#ffcc00;stroke-width:0.09375;stroke-linecap:butt;stroke-linejoin:miter;stroke-miterlimit:10;stroke-dasharray:none;stroke-opacity:1"
       id="path159" /><path
       d="M 182.4,315 C 183.7,314.9 185,314.8 186.3,314.8 C 186.4,313.6 186.4,312.3 186.4,311.1 C 185.1,311.1 183.9,311.1 182.6,311.1 C 182.4,312.4 182.4,313.7 182.4,315 z"
       style="fill:#ffcc00;fill-opacity:1;fill-rule:nonzero;stroke:#ffcc00;stroke-width:0.09375;stroke-linecap:butt;stroke-linejoin:miter;stroke-miterlimit:10;stroke-dasharray:none;stroke-opacity:1"
       id="path161" /><path
       d="M 68.9,313.5 C 72.4,312.1 75.2,309.4 77.3,306.3 C 73.4,306.7 69.9,309.7 68.9,313.5 z"
       style="fill:#ffcc00;fill-opacity:1;fill-rule:nonzero;stroke:#ffcc00;stroke-width:0.09375;stroke-linecap:butt;stroke-linejoin:miter;stroke-miterlimit:10;stroke-dasharray:none;stroke-opacity:1"
       id="path163" /><path
       d="M 72.9,313.6 C 76.5,312.4 79.2,309.4 81.3,306.3 C 77.5,307.2 75,310.5 72.9,313.6 z"
       style="fill:#ffcc00;fill-opacity:1;fill-rule:nonzero;stroke:#ffcc00;stroke-width:0.09375;stroke-linecap:butt;stroke-linejoin:miter;stroke-miterlimit:10;stroke-dasharray:none;stroke-opacity:1"
       id="path165" /><path
       d="M 85.7,309.5 C 88.7,310.3 91.5,311.7 94.1,313.2 C 93,309.7 89.1,307.8 85.7,309.5 z"
       style="fill:#ffcc00;fill-opacity:1;fill-rule:nonzero;stroke:#ffcc00;stroke-width:0.09375;stroke-linecap:butt;stroke-linejoin:miter;stroke-miterlimit:10;stroke-dasharray:none;stroke-opacity:1"
       id="path167" /><path
       d="M 108.9,313.4 C 112.3,312.6 115.2,310.5 118.6,309.6 C 114.8,308.4 111,310.2 108.9,313.4 z"
       style="fill:#ffcc00;fill-opacity:1;fill-rule:nonzero;stroke:#ffcc00;stroke-width:0.09375;stroke-linecap:butt;stroke-linejoin:miter;stroke-miterlimit:10;stroke-dasharray:none;stroke-opacity:1"
       id="path169" /><path
       d="M 95.5,312 C 96.8,312.8 98.7,310.7 97.9,309.4 C 96.6,308.7 94.5,310.7 95.5,312 z"
       style="fill:#ffcc00;fill-opacity:1;fill-rule:nonzero;stroke:#ffcc00;stroke-width:0.09375;stroke-linecap:butt;stroke-linejoin:miter;stroke-miterlimit:10;stroke-dasharray:none;stroke-opacity:1"
       id="path171" /><path
       d="M 78.9,311.4 C 82,310.4 84.9,309 88,307.9 C 86.6,307.5 85.3,307.2 83.9,306.9 C 82.1,308.2 80.3,309.6 78.9,311.4 z"
       style="fill:#ffcc00;fill-opacity:1;fill-rule:nonzero;stroke:#ffcc00;stroke-width:0.09375;stroke-linecap:butt;stroke-linejoin:miter;stroke-miterlimit:10;stroke-dasharray:none;stroke-opacity:1"
       id="path173" /><path
       d="M 164.3,311.4 C 169.9,308.8 175.4,306 180.2,302.1 C 176.3,301.8 172.6,302.9 169,304.1 C 165.7,304.9 165.6,308.9 164.3,311.4 z"
       style="fill:#ffcc00;fill-opacity:1;fill-rule:nonzero;stroke:#ffcc00;stroke-width:0.09375;stroke-linecap:butt;stroke-linejoin:miter;stroke-miterlimit:10;stroke-dasharray:none;stroke-opacity:1"
       id="path175" /><path
       d="M 187.1,310.2 C 192.4,311.7 198.4,309.7 201.7,305.3 C 200.7,305.3 198.7,305.3 197.6,305.3 C 199.5,303.6 201.4,301.9 203,299.9 C 199.8,301.3 197.5,304.1 194.7,306.1 C 192.3,307.8 189.7,308.9 187.1,310.2 z"
       style="fill:#ffcc00;fill-opacity:1;fill-rule:nonzero;stroke:#ffcc00;stroke-width:0.09375;stroke-linecap:butt;stroke-linejoin:miter;stroke-miterlimit:10;stroke-dasharray:none;stroke-opacity:1"
       id="path177" /><path
       d="M 36.2,307.6 C 36,311.3 42.6,311.3 41.3,307.3 C 40.8,307.6 39.7,308.1 39.2,308.4 C 38.2,308.1 37.2,307.9 36.2,307.6 z"
       style="fill:#ffcc00;fill-opacity:1;fill-rule:nonzero;stroke:#ffcc00;stroke-width:0.09375;stroke-linecap:butt;stroke-linejoin:miter;stroke-miterlimit:10;stroke-dasharray:none;stroke-opacity:1"
       id="path179" /><path
       d="M 67.6,308 C 66.4,310.9 71.9,309.9 70.7,307.4 C 69.6,306.9 68.6,307 67.6,308 z"
       style="fill:#ffcc00;fill-opacity:1;fill-rule:nonzero;stroke:#ffcc00;stroke-width:0.09375;stroke-linecap:butt;stroke-linejoin:miter;stroke-miterlimit:10;stroke-dasharray:none;stroke-opacity:1"
       id="path181" /><path
       d="M 201,307.7 C 202.4,308.6 204,309.1 205.7,309.1 C 205.5,307.5 205.4,305.8 203.9,304.9 C 202.8,305.7 201.8,306.6 201,307.7 z"
       style="fill:#ffcc00;fill-opacity:1;fill-rule:nonzero;stroke:#ffcc00;stroke-width:0.09375;stroke-linecap:butt;stroke-linejoin:miter;stroke-miterlimit:10;stroke-dasharray:none;stroke-opacity:1"
       id="path185" /><path
       d="M 92.4,307.5 C 92.6,308.8 93.3,309 94.6,308.2 C 94.3,306.8 93.6,306.6 92.4,307.5 z"
       style="fill:#545337;fill-opacity:1;fill-rule:nonzero;stroke:#545337;stroke-width:0.09375;stroke-linecap:butt;stroke-linejoin:miter;stroke-miterlimit:10;stroke-dasharray:none;stroke-opacity:1"
       id="path187" /><path
       d="M 46.4,307.4 C 50.5,307.2 54.2,305.2 57.5,302.8 C 53.6,301.5 49.2,300.3 45.4,302.6 C 45.4,303.2 45.4,304.4 45.4,304.9 C 47.9,303.9 50.3,302.4 53.1,302.5 C 50.9,304.3 48.2,305.2 46.4,307.4 z"
       style="fill:#ffcc00;fill-opacity:1;fill-rule:nonzero;stroke:#ffcc00;stroke-width:0.09375;stroke-linecap:butt;stroke-linejoin:miter;stroke-miterlimit:10;stroke-dasharray:none;stroke-opacity:1"
       id="path191" /><path
       d="M 29.1,303.5 C 30.2,304.5 31.2,306.1 32.9,305.9 C 36.7,306.1 40.4,305.6 44.2,305.9 C 43.4,303.8 42.7,300.7 39.9,300.5 C 37.8,300.3 35.7,299.7 33.7,299 L 32.8,300.5 C 36.1,301.5 40.3,301.4 42.5,304.5 C 38.7,303.4 35,302.2 31.1,301.3 C 30.6,301.9 29.6,303 29.1,303.5 z"
       style="fill:#ffcc00;fill-opacity:1;fill-rule:nonzero;stroke:#ffcc00;stroke-width:0.09375;stroke-linecap:butt;stroke-linejoin:miter;stroke-miterlimit:10;stroke-dasharray:none;stroke-opacity:1"
       id="path193" /><path
       d="M 186.1,306.5 C 189.1,308 186.3,303.1 186.1,306.5 z"
       style="fill:#545337;fill-opacity:1;fill-rule:nonzero;stroke:#545337;stroke-width:0.09375;stroke-linecap:butt;stroke-linejoin:miter;stroke-miterlimit:10;stroke-dasharray:none;stroke-opacity:1"
       id="path197" /><path
       d="M 176.9,305.9 C 179.8,305.7 182.7,305.4 185.6,305.1 C 184,304.3 182.7,302.8 180.9,302.7 C 179.3,303.2 178.1,304.7 176.9,305.9 z"
       style="fill:#ffcc00;fill-opacity:1;fill-rule:nonzero;stroke:#ffcc00;stroke-width:0.09375;stroke-linecap:butt;stroke-linejoin:miter;stroke-miterlimit:10;stroke-dasharray:none;stroke-opacity:1"
       id="path199" /><path
       d="M 190.5,305.4 C 190.9,303.4 191.4,301.3 191.9,299.3 C 191,300 190.2,300.6 189.3,301.3 C 189.8,302.6 190.2,304 190.5,305.4 z"
       style="fill:#ffcc00;fill-opacity:1;fill-rule:nonzero;stroke:#ffcc00;stroke-width:0.09375;stroke-linecap:butt;stroke-linejoin:miter;stroke-miterlimit:10;stroke-dasharray:none;stroke-opacity:1"
       id="path201" /><path
       d="M 194.3,304 C 195.9,304 196.9,300.3 195.4,299.7 C 194.3,300.7 193.6,302.6 194.3,304 z"
       style="fill:#545337;fill-opacity:1;fill-rule:nonzero;stroke:#545337;stroke-width:0.09375;stroke-linecap:butt;stroke-linejoin:miter;stroke-miterlimit:10;stroke-dasharray:none;stroke-opacity:1"
       id="path203" /><path
       d="M 181.5,301.4 C 184.1,301.2 187.1,301.1 189,299 C 186.3,299.1 183.7,299.7 181.5,301.4 z"
       style="fill:#545337;fill-opacity:1;fill-rule:nonzero;stroke:#545337;stroke-width:0.09375;stroke-linecap:butt;stroke-linejoin:miter;stroke-miterlimit:10;stroke-dasharray:none;stroke-opacity:1"
       id="path207" /><path
       d="M 197.2,301 C 200.5,300.8 195.6,298 197.2,301 z"
       style="fill:#545337;fill-opacity:1;fill-rule:nonzero;stroke:#545337;stroke-width:0.09375;stroke-linecap:butt;stroke-linejoin:miter;stroke-miterlimit:10;stroke-dasharray:none;stroke-opacity:1"
       id="path209" /><path
       d="M 43.5,300.2 C 44.7,301.1 45.4,300.9 45.6,299.5 C 44.4,298.6 43.7,298.8 43.5,300.2 z"
       style="fill:#545337;fill-opacity:1;fill-rule:nonzero;stroke:#545337;stroke-width:0.09375;stroke-linecap:butt;stroke-linejoin:miter;stroke-miterlimit:10;stroke-dasharray:none;stroke-opacity:1"
       id="path211" /><path
       d="M 39.5,299.3 C 40.3,300.3 42.6,299.2 41.6,298 C 40.8,296.9 38.5,298.1 39.5,299.3 z"
       style="fill:#545337;fill-opacity:1;fill-rule:nonzero;stroke:#545337;stroke-width:0.09375;stroke-linecap:butt;stroke-linejoin:miter;stroke-miterlimit:10;stroke-dasharray:none;stroke-opacity:1"
       id="path213" /><path
       d="M 199.4,299.3 C 200.8,299.6 201.3,299.1 200.9,297.7 C 199.5,297.4 199,297.9 199.4,299.3 z"
       style="fill:#545337;fill-opacity:1;fill-rule:nonzero;stroke:#545337;stroke-width:0.09375;stroke-linecap:butt;stroke-linejoin:miter;stroke-miterlimit:10;stroke-dasharray:none;stroke-opacity:1"
       id="path215" /><path
       d="M 3.1,295.7 C 78.7,295.7 154.3,295.7 229.9,295.7 C 229.9,293.2 229.9,290.8 229.9,288.3 C 226.5,289.7 222.5,290.9 218.9,289.3 C 215,287.9 212.3,284.6 210.2,281.1 C 199,284.3 187.4,271.7 191.2,260.7 C 185.8,260.5 180.4,258.7 176.8,254.5 C 171.8,248.5 169.8,239.7 172.7,232.3 C 173.9,229.3 176.2,227 178.3,224.6 C 172.5,221.5 167.1,216.3 166.2,209.5 C 165.3,206.4 167.2,202.5 164.5,199.9 C 160.1,196.4 155.6,193.2 150.9,190.1 C 148.6,188.7 149.3,185.5 148.9,183.1 C 143.4,183.5 138.9,180.2 134.1,178.1 C 131.3,175.9 129.4,172.8 126.8,170.5 C 112.3,184.1 97.1,197.1 82.4,210.7 C 82.5,216.5 80.5,222.6 75.6,226 C 71.9,228.6 64.8,225.5 66.2,220.6 C 66.5,218.5 68.9,218.3 70.4,217.6 C 73.6,216.8 76.1,214.6 78.1,212.2 C 76.3,203.8 73.4,195.7 70.6,187.7 C 68.8,182.4 66.8,177.2 65.4,171.9 C 63.6,165.9 62,159.7 62.8,153.4 C 63.4,146.8 68,141 73.9,138.2 C 77.2,136.5 81.1,136.7 84.7,136.8 C 85.3,135.8 85.9,134.9 86.6,133.9 C 81.9,130.9 77.1,128.1 72.8,124.5 C 60.6,117.5 49.2,109.2 37.4,101.7 C 36.4,104.9 35.8,108.3 35.5,111.6 C 29.9,101.8 23.9,92 15.7,84.1 C 19.3,85.3 22.8,86.9 26.6,88 C 34,90 41.7,90.9 49.2,92.3 C 46.4,94.1 43.4,95.6 40.6,97.3 C 56.8,108.8 73.8,119.1 90.1,130.4 C 90.6,126.7 88.2,123.3 88.4,119.5 C 87.7,111.5 92.2,103.2 99.7,100 C 108.5,96 118.6,96.7 127.8,94.1 C 131.9,92.9 135.4,90.4 139.3,88.7 L 139.6,88.5 C 140.3,84.3 140.5,80 141,75.7 C 139.6,75.6 137.7,76 136.9,74.6 C 135.2,72 137.2,68.2 140.1,67.5 C 143,66.7 145.8,68 148.3,69.4 C 150.5,72.9 151.3,77.3 149.8,81.3 C 148.5,85.4 145.4,88.6 142,91.2 C 140.7,95.7 141.1,100.4 140.6,105 C 139.8,120.4 138.2,135.7 137.8,151.1 C 143,150.6 147.4,154 151.2,157.3 C 154.3,160.1 158,162.4 160.2,166.1 C 161.3,167.9 162.8,169.5 164.6,170.7 C 167.1,169.9 169.6,170.3 171.6,172 C 172.2,168.6 173.5,165.3 175.4,162.4 C 171.8,158.2 168.9,153 168.7,147.4 C 168.5,133.7 180.1,120.1 194.3,120.5 C 193.2,115.7 193,110.4 195.7,106 C 198.8,101.4 204.4,98.4 210,98.9 C 212.7,99 215.3,99.7 218,99.5 C 220.9,95.5 225,92.7 229.9,91.9 C 229.4,78.4 231.5,64.6 227.5,51.5 C 226,46.4 222.8,41.7 218,39.4 C 212.8,36.5 206.8,35.4 200.9,35 C 182.6,34.9 164.3,35.1 146,35 C 137.8,34.6 128.3,34.6 122,28.5 C 117.3,23.2 117.98355,15.978788 116.4,9.3623377 C 115.1,15.862338 115.5,23.1 111.1,28.4 C 105.3,34.1 96.6,34.6 89,34.9 C 69.5,35.3 50,34.8 30.5,35.1 C 22.5,35.9 13.5,38.1 8.5,45 C 3.9,52.5 3.1,61.7 3.1,70.3 C 3.1,145.5 3,220.6 3.1,295.7 z"
       style="fill:#ffcc00;fill-opacity:1;fill-rule:nonzero;stroke:#ffcc00;stroke-width:0.09375;stroke-linecap:butt;stroke-linejoin:miter;stroke-miterlimit:10;stroke-dasharray:none;stroke-opacity:1"
       id="path217"
       sodipodi:nodetypes="ccccccccccccccccccccccccccccccccccccccccccccccccccccccccccccccccccccsc" /><path
       d="M 213,276.3 C 213.4,283.9 223.3,289 229.1,283.6 L 229.7,281.9 C 226.3,281.9 222.6,282.6 219.4,281 C 216.9,280 214.9,278.1 213,276.3 z"
       style="fill:#01ccff;fill-opacity:1;fill-rule:nonzero;stroke:#01ccff;stroke-width:0.09375;stroke-linecap:butt;stroke-linejoin:miter;stroke-miterlimit:10;stroke-dasharray:none;stroke-opacity:1"
       id="path219" /><path
       d="M 194.2,258.9 C 188.2,267.1 195.9,278.7 205.1,280 C 207.5,280.1 210,279.6 212.4,279.2 C 208.2,278.2 203.7,277.8 200,275.4 C 198.1,274 196.7,272 195.6,270 C 193.5,266.6 194.6,262.5 194.2,258.9 z"
       style="fill:#01ccff;fill-opacity:1;fill-rule:nonzero;stroke:#01ccff;stroke-width:0.09375;stroke-linecap:butt;stroke-linejoin:miter;stroke-miterlimit:10;stroke-dasharray:none;stroke-opacity:1"
       id="path221" /><path
       d="M 220,279.6 C 223,280.9 226.9,281.3 229.6,278.9 C 224.5,279.4 218.4,278.8 215.6,274 C 212.9,270.5 214.1,266.1 213.9,262.1 C 211.5,264.6 211.1,268.3 211.9,271.5 C 212.7,275.5 216.4,278.2 220,279.6 z"
       style="fill:#01ccff;fill-opacity:1;fill-rule:nonzero;stroke:#01ccff;stroke-width:0.09375;stroke-linecap:butt;stroke-linejoin:miter;stroke-miterlimit:10;stroke-dasharray:none;stroke-opacity:1"
       id="path223" /><path
       d="M 215.2,266.3 C 213.8,273.6 222.7,280.4 229.2,276.5 C 229.6,274.7 229.3,272.8 228.6,271.1 C 223.4,271.8 219.5,268.3 215.2,266.3 z"
       style="fill:#01ccff;fill-opacity:1;fill-rule:nonzero;stroke:#01ccff;stroke-width:0.09375;stroke-linecap:butt;stroke-linejoin:miter;stroke-miterlimit:10;stroke-dasharray:none;stroke-opacity:1"
       id="path225" /><path
       d="M 195.4,263.9 C 195.4,270.2 201,276.2 207.4,276.4 C 204.7,274.9 201.6,274.1 199.6,271.7 C 197.5,269.5 196.6,266.6 195.4,263.9 z"
       style="fill:#01ccff;fill-opacity:1;fill-rule:nonzero;stroke:#01ccff;stroke-width:0.09375;stroke-linecap:butt;stroke-linejoin:miter;stroke-miterlimit:10;stroke-dasharray:none;stroke-opacity:1"
       id="path227" /><path
       d="M 110.1,274.1 C 114.2,274.2 118.3,274.1 122.5,273.9 C 121.4,269.8 120.3,265.7 119.8,261.5 C 123.8,262.3 127.8,263.4 131.9,264.2 C 131.8,260.3 131.7,256.4 131.9,252.5 C 128,253.1 124,253.9 120.2,254.7 C 120.8,250.4 121.8,246.2 122.6,242 C 118.4,242 114.3,242 110.1,242 C 111,246.3 112.5,250.5 112.9,254.9 C 108.9,254 104.8,253.1 100.8,252.5 C 100.8,256.4 100.8,260.3 100.8,264.2 C 104.9,263.4 108.9,262.4 113.1,261.6 C 112.4,265.8 111.3,270 110.1,274.1 z"
       style="fill:#030000;fill-opacity:1;fill-rule:nonzero;stroke:#030000;stroke-width:0.09375;stroke-linecap:butt;stroke-linejoin:miter;stroke-miterlimit:10;stroke-dasharray:none;stroke-opacity:1"
       id="path229" /><path
       d="M 195.5,261.3 C 197.5,268.1 202.7,275.8 210.8,274.7 C 210.1,269.7 209.5,264.4 211.8,259.7 C 206.8,261.2 201.5,261 196.4,259.9 C 196.2,260.2 195.7,260.9 195.5,261.3 z"
       style="fill:#01ccff;fill-opacity:1;fill-rule:nonzero;stroke:#01ccff;stroke-width:0.09375;stroke-linecap:butt;stroke-linejoin:miter;stroke-miterlimit:10;stroke-dasharray:none;stroke-opacity:1"
       id="path231" /><path
       d="M 112.2,272.6 C 115.55039,272.6 117.98279,272.57403 120.72468,272.57403 C 119.92468,268.97403 118.2,264.5 118.2,260.7 C 122.3,260.4 126.3,261.5 130.3,262.2 C 130.3,259.7 130.4,257.1 130.4,254.6 C 126.4,254.6 122.5,256.1 118.5,255.9 C 118.7,251.7 120.6,247.9 120.7,243.7 C 117.8,243.7 115,243.7 112.2,243.7 C 112.4,247.9 114.4,251.8 114.6,256 C 110.4,256.2 106.4,255 102.3,254.4 C 102.3,257.1 102.3,259.7 102.3,262.4 C 106.3,261.5 110.4,260.4 114.6,260.6 C 114.4,264.7 112.8,268.6 112.2,272.6 z"
       style="fill:#f50508;fill-opacity:1;fill-rule:nonzero;stroke:#f50508;stroke-width:0.09375;stroke-linecap:butt;stroke-linejoin:miter;stroke-miterlimit:10;stroke-dasharray:none;stroke-opacity:1"
       id="path233"
       sodipodi:nodetypes="ccccccccccccc" /><path
       d="M 220.1,267.3 C 222.9,269.5 226.7,269.3 230,268.8 C 227.9,266.2 224.1,267.6 221.6,265.7 C 215.1,261.9 212.4,253.3 214.7,246.2 C 210.9,253.3 213.3,263 220.1,267.3 z"
       style="fill:#01ccff;fill-opacity:1;fill-rule:nonzero;stroke:#01ccff;stroke-width:0.09375;stroke-linecap:butt;stroke-linejoin:miter;stroke-miterlimit:10;stroke-dasharray:none;stroke-opacity:1"
       id="path235" /><path
       d="M 225.2,264.3 C 226.6,264.7 228.6,265.6 229.3,263.6 C 229.3,259.5 229.7,255.3 229,251.3 C 225.5,250.5 221.7,250.7 218.4,248.9 C 216.9,254.7 219.3,262.1 225.2,264.3 z"
       style="fill:#01ccff;fill-opacity:1;fill-rule:nonzero;stroke:#01ccff;stroke-width:0.09375;stroke-linecap:butt;stroke-linejoin:miter;stroke-miterlimit:10;stroke-dasharray:none;stroke-opacity:1"
       id="path237" /><path
       d="M 216.5,247.2 C 215,251.3 215.8,256 217.7,259.8 C 216.7,255.7 216,251.5 216.5,247.2 z"
       style="fill:#01ccff;fill-opacity:1;fill-rule:nonzero;stroke:#01ccff;stroke-width:0.09375;stroke-linecap:butt;stroke-linejoin:miter;stroke-miterlimit:10;stroke-dasharray:none;stroke-opacity:1"
       id="path239" /><path
       d="M 177.1,252.4 C 180.6,257 186.5,259.6 192.3,258.9 C 191.4,256 188.2,255.1 186.5,252.9 C 180.4,246.2 177.3,235.5 182.2,227.4 C 182.4,226.3 182.6,225.1 182.8,224 C 177.2,226.4 173.2,232.3 173.1,238.4 C 172.9,243.3 174.3,248.3 177.1,252.4 z"
       style="fill:#01ccff;fill-opacity:1;fill-rule:nonzero;stroke:#01ccff;stroke-width:0.09375;stroke-linecap:butt;stroke-linejoin:miter;stroke-miterlimit:10;stroke-dasharray:none;stroke-opacity:1"
       id="path241" /><path
       d="M 183.5,246 C 188.4,255.7 200.5,261.3 210.9,257.8 C 210.9,257.2 210.7,256.1 210.7,255.5 C 206.4,256 202,256.7 197.7,255.8 C 191.2,253.6 185.5,248.6 183.3,242 C 182,238.8 182.1,235.2 181.4,231.8 C 180.8,236.6 181,241.8 183.5,246 z"
       style="fill:#01ccff;fill-opacity:1;fill-rule:nonzero;stroke:#01ccff;stroke-width:0.09375;stroke-linecap:butt;stroke-linejoin:miter;stroke-miterlimit:10;stroke-dasharray:none;stroke-opacity:1"
       id="path243" /><path
       d="M 185.1,242.2 C 188.5,251.3 199.1,257.5 208.6,254.1 C 210.5,254.1 210.5,252 211,250.6 C 206.2,251.1 201,251.9 196.4,249.8 C 189.8,246.9 185.8,239.4 186.3,232.3 C 186.3,228.9 188.1,225.8 189,222.6 C 188.4,222.6 187.2,222.7 186.7,222.8 C 183.3,228.6 182.1,236 185.1,242.2 z"
       style="fill:#01ccff;fill-opacity:1;fill-rule:nonzero;stroke:#01ccff;stroke-width:0.09375;stroke-linecap:butt;stroke-linejoin:miter;stroke-miterlimit:10;stroke-dasharray:none;stroke-opacity:1"
       id="path245" /><path
       d="M 198.3,249.1 C 202.5,250.7 207.1,250.2 211.2,248.6 C 211.6,247.3 213.4,245.7 212.1,244.4 C 209,240.8 207.1,236.5 206.4,231.8 C 200.8,230.2 195,228.5 190.5,224.5 C 184.2,232.5 188.9,245.9 198.3,249.1 z"
       style="fill:#01ccff;fill-opacity:1;fill-rule:nonzero;stroke:#01ccff;stroke-width:0.09375;stroke-linecap:butt;stroke-linejoin:miter;stroke-miterlimit:10;stroke-dasharray:none;stroke-opacity:1"
       id="path247" /><path
       d="M 209.2,235.2 C 211.2,244 220.5,249.8 229.3,249 C 229.3,245.7 229.6,242.3 228.8,239 C 224,239.5 218.5,237.9 215.9,233.5 C 214.2,231.2 214.1,228.2 214.1,225.4 C 215.6,228.7 216.7,232.4 219.8,234.6 C 222.4,236.9 226,237 229.4,237 C 229.3,218.6 229.4,200.2 229.3,181.8 C 224.8,182.9 220.5,185.6 218.3,189.8 C 215.2,197.4 218.2,208.2 226.9,210.3 C 227,212.8 224.5,212.2 223.1,211.5 C 214.2,206.7 211.6,192.6 219.4,185.7 C 221.9,182.9 225.8,182.3 229.3,181.5 C 229.3,179.6 229.3,177.6 229.4,175.7 C 218.5,177.1 209.5,188.1 211.3,199.2 C 211.6,205.2 216.4,209.3 221.1,212.4 C 216.7,210.5 212.6,207.2 210.8,202.6 C 208.7,196 209.6,188.5 213.3,182.7 C 217.1,177.2 223.3,174 229.5,171.9 C 229.3,167.9 229.4,163.9 229.5,159.9 C 223.9,160.1 217.9,158.6 213.9,154.5 C 210.5,151.4 209,146.8 208.5,142.4 C 208.2,138.8 209.8,135.5 210.8,132.2 C 207.7,136.6 206.6,142.1 206.6,147.4 C 207.7,154.2 211.5,160.6 217.6,164.1 C 219.8,165.5 222.5,166.1 224.3,168.1 C 218.3,167.9 213.8,163.5 209.8,159.5 C 202.3,161.7 196.5,168.2 193.6,175.3 C 187.2,191.9 195.9,213.1 212.8,219.3 C 210.2,224.1 207.4,229.6 209.2,235.2 z"
       style="fill:#01ccff;fill-opacity:1;fill-rule:nonzero;stroke:#01ccff;stroke-width:0.09375;stroke-linecap:butt;stroke-linejoin:miter;stroke-miterlimit:10;stroke-dasharray:none;stroke-opacity:1"
       id="path249" /><path
       d="M 182.7,204.4 C 182.3,217.3 194,228.1 206.4,229.3 C 207.3,226.2 208.3,223.1 209.7,220.1 C 200.5,216.1 193.6,207.8 190.5,198.4 C 189.7,201.3 188.2,204.3 188.9,207.4 C 190,212.7 193.3,217.6 197.9,220.5 C 200,222 202.6,222.8 204,225.1 C 199.9,225.1 196.4,222.6 193.4,220 C 189,215.7 185.7,209.6 186.4,203.3 C 186.5,199.4 189.5,196.3 189.6,192.3 C 184.7,194 183.6,200 182.7,204.4 z"
       style="fill:#01ccff;fill-opacity:1;fill-rule:nonzero;stroke:#01ccff;stroke-width:0.09375;stroke-linecap:butt;stroke-linejoin:miter;stroke-miterlimit:10;stroke-dasharray:none;stroke-opacity:1"
       id="path251" /><path
       d="M 66.2,220.6 C 64.8,225.5 71.9,228.6 75.6,226 C 80.5,222.6 82.5,216.5 82.4,210.7 C 97.1,197.1 112.3,184.1 126.8,170.5 L 127.1,170.2 C 126.6,170.2 125.4,170.4 124.9,170.4 C 110.4,182.9 96.6,196.2 82.1,208.7 C 77.8,190.7 68.5,173.1 71.7,154.1 C 73.5,147.1 81.7,145.2 88,145.2 C 89.8,142.8 91.7,140.3 93.6,137.9 C 95.2,141.6 94.8,146.5 98.8,148.6 C 106.2,153.3 113.5,158.1 120.9,162.8 L 122,162.4 L 122,161.2 C 121.6,159.6 122.7,157.2 124.2,159.4 C 124.5,159.1 125.1,158.6 125.4,158.4 C 109.5,147.8 93.4,137.5 77.6,126.8 C 76.1,125.9 74.5,125.2 72.8,124.5 C 77.1,128.1 81.9,130.9 86.6,133.9 C 85.9,134.9 85.3,135.8 84.7,136.8 C 81.1,136.7 77.2,136.5 73.9,138.2 C 68,141 63.4,146.8 62.8,153.4 C 62,159.7 63.6,165.9 65.4,171.9 C 65.4,164.8 62.8,157.6 65.5,150.8 C 67.3,146.4 70.3,142 74.8,140.1 C 76.9,139.2 79.2,139.8 81.3,139.8 C 84.4,140.4 86.2,137.1 88.3,135.4 C 89.1,136.4 89.9,137.3 90.7,138.2 C 88.2,141.5 84.3,143 80.2,143 C 77.8,143.8 75.5,144.8 73.4,146 C 72,149.6 70.3,153.1 69.4,156.9 C 68.6,160.8 68.8,164.8 68.7,168.7 C 70.3,173.1 71.5,177.6 71.4,182.3 C 71.4,182.6 71.4,183.4 71.5,183.7 L 71.9,183.3 C 74.1,192.5 77.5,201.3 79.5,210.5 C 79.1,210.9 78.5,211.8 78.1,212.2 C 76.1,214.6 73.6,216.8 70.4,217.6 C 68.9,218.3 66.5,218.5 66.2,220.6 z"
       style="fill:#420e07;fill-opacity:1;fill-rule:nonzero;stroke:#420e07;stroke-width:0.09375;stroke-linecap:butt;stroke-linejoin:miter;stroke-miterlimit:10;stroke-dasharray:none;stroke-opacity:1"
       id="path253" /><path
       d="M 68.2,222.3 C 68.1,224.9 71,226.6 73.4,225.9 C 75.4,224.9 76.7,223 78.1,221.2 C 78.4,220.1 78.7,219 79,217.9 C 79.3,216.4 79.5,214.8 79.6,213.3 C 79.2,213.8 78.3,214.8 77.9,215.3 C 77.1,216.2 76.4,217.1 75.7,217.9 L 75.8,220.2 C 74.5,221.6 73,222.7 71.4,223.5 C 71.4,222.1 71.5,220.6 71.6,219.2 C 70.3,219.9 67.8,220.3 68.2,222.3 z"
       style="fill:#bd0e16;fill-opacity:1;fill-rule:nonzero;stroke:#bd0e16;stroke-width:0.09375;stroke-linecap:butt;stroke-linejoin:miter;stroke-miterlimit:10;stroke-dasharray:none;stroke-opacity:1"
       id="path255" /><path
       d="M 181.6,222.8 C 183.5,224.3 185.2,221.7 185.8,220.1 C 186.1,216.9 182.6,216.3 180.4,215.1 C 177.2,213.7 175.1,210.8 173.2,208 C 172.7,207.9 171.6,207.7 171,207.5 C 171.1,214.3 176,219.7 181.6,222.8 z"
       style="fill:#01ccff;fill-opacity:1;fill-rule:nonzero;stroke:#01ccff;stroke-width:0.09375;stroke-linecap:butt;stroke-linejoin:miter;stroke-miterlimit:10;stroke-dasharray:none;stroke-opacity:1"
       id="path257" /><path
       d="M 167.5,204.4 C 166.7,211.5 170.8,218.5 177.1,221.6 C 174.5,218.5 170.6,215.9 170.4,211.4 C 169.9,208.9 170.4,205.5 167.5,204.4 z"
       style="fill:#01ccff;fill-opacity:1;fill-rule:nonzero;stroke:#01ccff;stroke-width:0.09375;stroke-linecap:butt;stroke-linejoin:miter;stroke-miterlimit:10;stroke-dasharray:none;stroke-opacity:1"
       id="path259" /><path
       d="M 74.1,219.2 C 74.5,218.9 75.3,218.2 75.7,217.9 C 76.4,217.1 77.1,216.2 77.9,215.3 C 76.3,216.3 74.4,217.2 74.1,219.2 z"
       style="fill:#ffcc00;fill-opacity:1;fill-rule:nonzero;stroke:#ffcc00;stroke-width:0.09375;stroke-linecap:butt;stroke-linejoin:miter;stroke-miterlimit:10;stroke-dasharray:none;stroke-opacity:1"
       id="path261" /><path
       d="M 176.5,210.3 C 178.5,212.5 181.1,213.9 183.7,215.4 C 182.5,211.9 183.3,207.6 180.9,204.6 C 181.4,202.9 181.7,201.1 181.9,199.3 C 180.4,198.6 178.9,197.9 177.5,196.9 C 175.8,195.2 175.5,192.4 173.7,190.7 C 171.7,189.8 169.4,189.7 167.3,189.3 C 167.8,188.5 168.4,187.8 168.9,187 C 168.2,186.9 167.5,186.7 166.8,186.6 C 165.6,187.2 164.4,187.9 163.2,188.5 C 162.7,188.9 161.8,189.8 161.3,190.2 C 161.8,190.4 162.9,190.9 163.5,191.2 C 163.5,191.5 163.5,192.2 163.5,192.6 C 164.3,192.5 165.9,192.4 166.8,192.4 C 166.7,193 166.6,194.1 166.5,194.6 C 169,194.5 171.5,194.2 174,193.9 C 172,194.9 170.1,195.9 168.1,196.8 C 168.2,197 168.6,197.5 168.7,197.8 C 168.1,198.2 166.9,199 166.3,199.4 C 168.3,202.8 171.5,205.6 175.2,207 C 175.7,206.6 176.6,205.9 177.1,205.6 C 172.3,206.9 169.3,202.6 167,199.3 C 169.2,199.2 171.3,199.1 173.5,198.9 C 173.4,200.3 173.2,201.6 173.1,202.9 C 174.6,203.8 176,204.7 177.4,205.6 C 177.5,205.6 177.5,205.6 177.6,205.6 C 176,206.7 175.8,208.7 176.5,210.3 z"
       style="fill:#ea080a;fill-opacity:1;fill-rule:nonzero;stroke:#ea080a;stroke-width:0.09375;stroke-linecap:butt;stroke-linejoin:miter;stroke-miterlimit:10;stroke-dasharray:none;stroke-opacity:1"
       id="path263" /><path
       d="M 78.1,212.2 C 78.5,211.8 79.1,210.9 79.5,210.5 C 77.5,201.3 74.1,192.5 71.9,183.3 L 71.5,183.7 C 71.1,185 70.9,186.4 70.6,187.7 C 73.4,195.7 76.3,203.8 78.1,212.2 z"
       style="fill:#7a1f01;fill-opacity:1;fill-rule:nonzero;stroke:#7a1f01;stroke-width:0.09375;stroke-linecap:butt;stroke-linejoin:miter;stroke-miterlimit:10;stroke-dasharray:none;stroke-opacity:1"
       id="path265" /><path
       d="M 71.7,154.1 C 68.5,173.1 77.8,190.7 82.1,208.7 C 96.6,196.2 110.4,182.9 124.9,170.4 L 126,169.5 C 125.5,169 124.6,168 124.1,167.5 C 124.3,167 124.6,166 124.8,165.5 C 123.5,164.5 122.2,163.6 120.9,162.8 C 113.5,158.1 106.2,153.3 98.8,148.6 C 94.8,146.5 95.2,141.6 93.6,137.9 C 91.7,140.3 89.8,142.8 88,145.2 C 81.7,145.2 73.5,147.1 71.7,154.1 z"
       style="fill:#ffcc00;fill-opacity:1;fill-rule:nonzero;stroke:#ffcc00;stroke-width:0.09375;stroke-linecap:butt;stroke-linejoin:miter;stroke-miterlimit:10;stroke-dasharray:none;stroke-opacity:1"
       id="path267" /><path
       d="M 167,199.3 C 169.3,202.6 172.3,206.9 177.1,205.6 L 177.4,205.6 C 176,204.7 174.6,203.8 173.1,202.9 C 173.2,201.6 173.4,200.3 173.5,198.9 C 171.3,199.1 169.2,199.2 167,199.3 z"
       style="fill:#ffebe7;fill-opacity:1;fill-rule:nonzero;stroke:#ffebe7;stroke-width:0.09375;stroke-linecap:butt;stroke-linejoin:miter;stroke-miterlimit:10;stroke-dasharray:none;stroke-opacity:1"
       id="path269" /><path
       d="M 203.1,205.2 C 203.8,205.1 205.3,204.9 206,204.8 C 199.7,197.7 197.6,187.6 200.2,178.6 C 201.1,175.8 202.6,173.1 203.9,170.4 C 194.3,179.5 195.9,195.2 203.1,205.2 z"
       style="fill:#030000;fill-opacity:1;fill-rule:nonzero;stroke:#030000;stroke-width:0.09375;stroke-linecap:butt;stroke-linejoin:miter;stroke-miterlimit:10;stroke-dasharray:none;stroke-opacity:1"
       id="path271" /><path
       d="M 181.9,199.3 L 183,199.8 C 183.5,198.1 184,196.4 184.6,194.7 C 182.5,193.8 180.5,193.1 178.5,192.3 C 179.2,191.1 179.8,189.9 180.5,188.7 C 180.3,188.5 180.1,188 179.9,187.7 C 179.1,188.1 178.3,188.6 177.5,189 C 174.4,187 170.5,184 166.8,186.6 C 167.5,186.7 168.2,186.9 168.9,187 C 168.4,187.8 167.8,188.5 167.3,189.3 C 169.4,189.7 171.7,189.8 173.7,190.7 C 175.5,192.4 175.8,195.2 177.5,196.9 C 178.9,197.9 180.4,198.6 181.9,199.3 z"
       style="fill:#bd0e16;fill-opacity:1;fill-rule:nonzero;stroke:#bd0e16;stroke-width:0.09375;stroke-linecap:butt;stroke-linejoin:miter;stroke-miterlimit:10;stroke-dasharray:none;stroke-opacity:1"
       id="path273" /><path
       d="M 153.8,189.9 C 158.9,191.7 162.3,197.9 168.1,196.8 C 170.1,195.9 172,194.9 174,193.9 C 171.5,194.2 169,194.5 166.5,194.6 C 166.6,194.1 166.7,193 166.8,192.4 C 165.9,192.4 164.3,192.5 163.5,192.6 C 163.5,192.2 163.5,191.5 163.5,191.2 C 162.9,190.9 161.8,190.4 161.3,190.2 C 161.8,189.8 162.7,188.9 163.2,188.5 C 162.5,188.6 161.2,188.9 160.5,189.1 C 158.7,189.5 156.9,189.7 155.1,189.8 L 153.8,189.9 z"
       style="fill:#ffebe7;fill-opacity:1;fill-rule:nonzero;stroke:#ffebe7;stroke-width:0.09375;stroke-linecap:butt;stroke-linejoin:miter;stroke-miterlimit:10;stroke-dasharray:none;stroke-opacity:1"
       id="path275" /><path
       d="M 178.5,192.3 C 180.5,193.1 182.5,193.8 184.6,194.7 C 186.1,193.3 187.7,192 188.8,190.2 C 189.4,188.2 187.5,186.9 186.3,185.7 C 185.2,186.1 184.1,186.4 183.1,186.7 C 182.9,187.1 182.5,188.1 182.3,188.5 C 182.2,186.6 183.7,184 181.9,182.6 C 178.9,180.2 175.7,178 173.2,175.1 C 173.1,176.5 173,177.8 173,179.2 C 172.1,181.3 171.5,184.3 168.6,184.4 C 169,183.2 169.5,181.9 169.9,180.7 C 168.9,180.7 168,180.8 167,180.9 C 166.2,181.1 165.5,181.4 164.8,181.8 C 165.8,182.5 166.8,183.1 167.8,183.8 C 164.9,185.3 162,186.7 159.1,188.1 C 159.4,188.3 160.2,188.8 160.5,189.1 C 161.2,188.9 162.5,188.6 163.2,188.5 C 164.4,187.9 165.6,187.2 166.8,186.6 C 170.5,184 174.4,187 177.5,189 C 178.3,188.6 179.1,188.1 179.9,187.7 C 180.1,188 180.3,188.5 180.5,188.7 C 179.8,189.9 179.2,191.1 178.5,192.3 z"
       style="fill:#941411;fill-opacity:1;fill-rule:nonzero;stroke:#941411;stroke-width:0.09375;stroke-linecap:butt;stroke-linejoin:miter;stroke-miterlimit:10;stroke-dasharray:none;stroke-opacity:1"
       id="path277" /><path
       d="M 155.1,189.8 C 156.9,189.7 158.7,189.5 160.5,189.1 C 160.2,188.8 159.4,188.3 159.1,188.1 C 162,186.7 164.9,185.3 167.8,183.8 C 166.8,183.1 165.8,182.5 164.8,181.8 C 160.5,183.7 156,185.3 151.7,187.3 C 152.5,188.7 153.7,189.6 155.1,189.8 z"
       style="fill:#e20f1a;fill-opacity:1;fill-rule:nonzero;stroke:#e20f1a;stroke-width:0.09375;stroke-linecap:butt;stroke-linejoin:miter;stroke-miterlimit:10;stroke-dasharray:none;stroke-opacity:1"
       id="path279" /><path
       d="M 65.4,171.9 C 66.8,177.2 68.8,182.4 70.6,187.7 C 70.9,186.4 71.1,185 71.5,183.7 C 71.4,183.4 71.4,182.6 71.4,182.3 C 69.5,178 67.8,173.5 68.7,168.7 C 68.8,164.8 68.6,160.8 69.4,156.9 C 70.3,153.1 72,149.6 73.4,146 C 66.1,149.6 66.7,158.6 66.5,165.5 C 66.4,160.1 65.6,154.3 68.4,149.5 C 71,145.7 75.2,142 80.2,143 C 84.3,143 88.2,141.5 90.7,138.2 C 89.9,137.3 89.1,136.4 88.3,135.4 C 86.2,137.1 84.4,140.4 81.3,139.8 C 79.2,139.8 76.9,139.2 74.8,140.1 C 70.3,142 67.3,146.4 65.5,150.8 C 62.8,157.6 65.4,164.8 65.4,171.9 z"
       style="fill:#8f190f;fill-opacity:1;fill-rule:nonzero;stroke:#8f190f;stroke-width:0.09375;stroke-linecap:butt;stroke-linejoin:miter;stroke-miterlimit:10;stroke-dasharray:none;stroke-opacity:1"
       id="path281" /><path
       d="M 182.5,180.7 C 184.4,182.9 186.9,184.6 189.4,186.1 C 189.6,173.9 197.2,162.3 208.6,157.5 C 206.7,153.4 204.9,149 205.4,144.3 C 205.2,138.8 208.3,134 210.2,129 C 204.5,128 198.6,127.6 193,129.6 C 183.5,132.4 176.8,142.6 178.1,152.5 C 178.2,156.5 179.9,160.2 181.8,163.7 C 180.7,167.3 178.9,170.8 179.2,174.7 C 180.5,168.2 185,161.7 192.2,161.4 C 189.2,163.1 186.1,164.8 184.5,167.8 C 181.8,171.6 182.1,176.4 182.5,180.7 z"
       style="fill:#01ccff;fill-opacity:1;fill-rule:nonzero;stroke:#01ccff;stroke-width:0.09375;stroke-linecap:butt;stroke-linejoin:miter;stroke-miterlimit:10;stroke-dasharray:none;stroke-opacity:1"
       id="path283" /><path
       d="M 149.4,182.6 C 150.2,183.4 151.1,184.2 151.9,185 C 156.3,184.6 160.3,182.4 164.3,180.6 C 166.9,179.6 168.5,176.2 167,173.7 L 166.6,173.4 C 165.1,172.3 163.6,171.3 162,170.3 C 161.6,171.5 161.1,172.6 160.5,173.7 C 162.6,166 154.4,162.1 150,157.3 L 149.2,158 C 149.5,159.9 149.4,161.6 147.1,161.4 C 146,162.4 144.8,163.3 143.5,164 C 143.5,166.9 140.5,167 138.5,168.1 C 142.9,168.8 147.8,168.7 151.8,171.1 C 147.5,169.7 143.1,169.1 138.6,169.3 C 140.3,170.7 142.1,171.9 143.8,173.2 C 141.2,171.9 138.7,170.5 135.8,169.9 C 132.4,169.2 129.8,166.6 126.6,165.5 C 126.5,166.1 126.3,167.3 126.2,168 C 126.8,168.1 128.1,168.4 128.7,168.5 C 130.4,171.6 131.9,175.3 135.1,177.4 C 137.8,178.6 140.6,179.7 143.2,181 C 146.1,182.6 149.4,181.1 152.3,180.6 C 151.4,181.4 150.4,182 149.4,182.6 z"
       style="fill:#ffe5cd;fill-opacity:1;fill-rule:nonzero;stroke:#ffe5cd;stroke-width:0.09375;stroke-linecap:butt;stroke-linejoin:miter;stroke-miterlimit:10;stroke-dasharray:none;stroke-opacity:1"
       id="path285" /><path
       d="M 168.6,184.4 C 171.5,184.3 172.1,181.3 173,179.2 C 173,177.8 173.1,176.5 173.2,175.1 C 171.6,173.8 169.9,172.5 168.1,171.2 C 167.7,171.8 167,172.9 166.6,173.4 L 167,173.7 C 170.2,175.2 167.8,178.6 167,180.9 C 168,180.8 168.9,180.7 169.9,180.7 C 169.5,181.9 169,183.2 168.6,184.4 z"
       style="fill:#7b1513;fill-opacity:1;fill-rule:nonzero;stroke:#7b1513;stroke-width:0.09375;stroke-linecap:butt;stroke-linejoin:miter;stroke-miterlimit:10;stroke-dasharray:none;stroke-opacity:1"
       id="path287" /><path
       d="M 68.7,168.7 C 67.8,173.5 69.5,178 71.4,182.3 C 71.5,177.6 70.3,173.1 68.7,168.7 z"
       style="fill:#651512;fill-opacity:1;fill-rule:nonzero;stroke:#651512;stroke-width:0.09375;stroke-linecap:butt;stroke-linejoin:miter;stroke-miterlimit:10;stroke-dasharray:none;stroke-opacity:1"
       id="path289" /><path
       d="M 173.1,172.7 C 174.8,174.1 176.4,175.7 177.9,177.3 C 176.9,172.5 178.4,168 179.8,163.5 C 177.5,158.8 175.1,153.8 175.8,148.4 C 176.8,141.2 180.5,134.1 186.8,130.3 C 190.4,127.9 194.8,127.4 198.9,126.7 C 197.6,120.1 196.4,112.3 201.6,107 C 205.3,102.5 211.5,102.6 216.8,102.7 C 209.7,97.6 198,101.6 195.6,110.1 C 194.7,114 195.3,118.2 196.5,122 C 191.6,122.4 186.4,122.8 182.2,125.6 C 174.1,131.1 168.5,141.5 170.9,151.4 C 171.9,155.7 174.9,159 177.6,162.3 C 175.4,165.4 173.7,168.8 173.1,172.7 z"
       style="fill:#01ccff;fill-opacity:1;fill-rule:nonzero;stroke:#01ccff;stroke-width:0.09375;stroke-linecap:butt;stroke-linejoin:miter;stroke-miterlimit:10;stroke-dasharray:none;stroke-opacity:1"
       id="path291" /><path
       d="M 127.1,169.2 C 127.5,169.4 128.4,169.8 128.9,170 C 128.8,169.6 128.7,168.9 128.7,168.5 C 128.3,168.5 127.6,168.5 127.3,168.5 L 127.1,169.2 z"
       style="fill:#ffe5cd;fill-opacity:1;fill-rule:nonzero;stroke:#ffe5cd;stroke-width:0.09375;stroke-linecap:butt;stroke-linejoin:miter;stroke-miterlimit:10;stroke-dasharray:none;stroke-opacity:1"
       id="path293" /><path
       d="M 133.5,167.3 C 133.6,168.9 136.6,169.7 137.4,168.4 C 137,167.9 136.2,167.1 135.8,166.6 C 135.2,166.8 134,167.1 133.5,167.3 z"
       style="fill:#ffe5cd;fill-opacity:1;fill-rule:nonzero;stroke:#ffe5cd;stroke-width:0.09375;stroke-linecap:butt;stroke-linejoin:miter;stroke-miterlimit:10;stroke-dasharray:none;stroke-opacity:1"
       id="path295" /><path
       d="M 125.8,165.3 C 128,164.6 129.7,166.2 131.6,167.1 C 133,166.8 134.5,166.4 135.9,165.8 C 133.5,162.9 129.9,160.6 126.1,160.9 C 124.3,161.9 124.6,164 125.8,165.3 z"
       style="fill:#ffe5cd;fill-opacity:1;fill-rule:nonzero;stroke:#ffe5cd;stroke-width:0.09375;stroke-linecap:butt;stroke-linejoin:miter;stroke-miterlimit:10;stroke-dasharray:none;stroke-opacity:1"
       id="path297" /><path
       d="M 137.9,163.6 C 136.7,165.2 139.1,166 139.9,166.9 C 140.4,166.5 141.4,165.6 141.9,165.2 C 141.7,164.6 141.4,163.3 141.2,162.6 C 140.4,162.9 138.7,163.3 137.9,163.6 z"
       style="fill:#ffe5cd;fill-opacity:1;fill-rule:nonzero;stroke:#ffe5cd;stroke-width:0.09375;stroke-linecap:butt;stroke-linejoin:miter;stroke-miterlimit:10;stroke-dasharray:none;stroke-opacity:1"
       id="path299" /><path
       d="M 66.5,165.5 C 66.7,158.6 66.1,149.6 73.4,146 C 75.5,144.8 77.8,143.8 80.2,143 C 75.2,142 71,145.7 68.4,149.5 C 65.6,154.3 66.4,160.1 66.5,165.5 z"
       style="fill:#f50701;fill-opacity:1;fill-rule:nonzero;stroke:#f50701;stroke-width:0.09375;stroke-linecap:butt;stroke-linejoin:miter;stroke-miterlimit:10;stroke-dasharray:none;stroke-opacity:1"
       id="path301" /><path
       d="M 128.3,158.3 C 130.5,161.1 134.4,162.2 135.7,165.6 C 136.9,164 138.3,162.7 140,161.9 C 137.4,160 135.3,157.1 132.1,156 C 130.3,155.3 129.3,157.3 128.3,158.3 z"
       style="fill:#ffe5cd;fill-opacity:1;fill-rule:nonzero;stroke:#ffe5cd;stroke-width:0.09375;stroke-linecap:butt;stroke-linejoin:miter;stroke-miterlimit:10;stroke-dasharray:none;stroke-opacity:1"
       id="path303" /><path
       d="M 122,161.2 C 123,163.7 125.5,160.9 124.2,159.4 C 122.7,157.2 121.6,159.6 122,161.2 z"
       style="fill:#b4602d;fill-opacity:1;fill-rule:nonzero;stroke:#b4602d;stroke-width:0.09375;stroke-linecap:butt;stroke-linejoin:miter;stroke-miterlimit:10;stroke-dasharray:none;stroke-opacity:1"
       id="path305" /><path
       d="M 141.6,161.1 C 142.1,162.5 143.1,162.9 144.5,162.2 C 145,161.1 144.7,160.1 143.6,159.5 C 142.7,159.7 142,160.2 141.6,161.1 z"
       style="fill:#ffe5cd;fill-opacity:1;fill-rule:nonzero;stroke:#ffe5cd;stroke-width:0.09375;stroke-linecap:butt;stroke-linejoin:miter;stroke-miterlimit:10;stroke-dasharray:none;stroke-opacity:1"
       id="path307" /><path
       d="M 132.5,155.2 C 135,157.2 137.5,159 140,161 C 140.9,160.2 141.9,159.3 143,158.6 C 140.5,155.9 136.1,151.3 132.5,155.2 z"
       style="fill:#ffe5cd;fill-opacity:1;fill-rule:nonzero;stroke:#ffe5cd;stroke-width:0.09375;stroke-linecap:butt;stroke-linejoin:miter;stroke-miterlimit:10;stroke-dasharray:none;stroke-opacity:1"
       id="path309" /><path
       d="M 148,157.3 C 144.4,155.9 146.4,162.4 148.6,159.7 C 148.6,159.3 148.6,158.4 148.6,158 C 148.5,157.8 148.2,157.5 148,157.3 z"
       style="fill:#ffe5cd;fill-opacity:1;fill-rule:nonzero;stroke:#ffe5cd;stroke-width:0.09375;stroke-linecap:butt;stroke-linejoin:miter;stroke-miterlimit:10;stroke-dasharray:none;stroke-opacity:1"
       id="path311" /><path
       d="M 119.5,159.2 C 121.3,158.9 119.9,155.3 118.4,155.9 C 117.8,157 118.5,158.6 119.5,159.2 z"
       style="fill:#c76c3a;fill-opacity:1;fill-rule:nonzero;stroke:#c76c3a;stroke-width:0.09375;stroke-linecap:butt;stroke-linejoin:miter;stroke-miterlimit:10;stroke-dasharray:none;stroke-opacity:1"
       id="path313" /><path
       d="M 125.4,158.4 C 126.5,159 127.6,159.6 128.7,160.1 C 128,158.7 127.5,157 126,156.2 C 109.7,145.7 93.6,134.8 77.4,124.2 C 77.4,124.8 77.6,126.1 77.6,126.8 C 93.4,137.5 109.5,147.8 125.4,158.4 z"
       style="fill:#b23f23;fill-opacity:1;fill-rule:nonzero;stroke:#b23f23;stroke-width:0.09375;stroke-linecap:butt;stroke-linejoin:miter;stroke-miterlimit:10;stroke-dasharray:none;stroke-opacity:1"
       id="path315" /><path
       d="M 114.4,154.2 C 115,155.6 115.7,157 116.5,158.4 C 116.4,156.8 116.4,155.2 116.4,153.5 C 115.9,153.7 114.9,154 114.4,154.2 z"
       style="fill:#ff815a;fill-opacity:1;fill-rule:nonzero;stroke:#ff815a;stroke-width:0.09375;stroke-linecap:butt;stroke-linejoin:miter;stroke-miterlimit:10;stroke-dasharray:none;stroke-opacity:1"
       id="path317" /><path
       d="M 138.1,153.4 C 140.4,155.3 142.7,157.2 145.2,159 C 145.5,157.8 145.7,156.6 146,155.5 C 143.7,153.7 140.9,150.8 138.1,153.4 z"
       style="fill:#ffe5cd;fill-opacity:1;fill-rule:nonzero;stroke:#ffe5cd;stroke-width:0.09375;stroke-linecap:butt;stroke-linejoin:miter;stroke-miterlimit:10;stroke-dasharray:none;stroke-opacity:1"
       id="path319" /><path
       d="M 148,157.3 C 148.2,157.5 148.5,157.8 148.6,158 L 148.6,157.4 L 148,157.3 z"
       style="fill:#030000;fill-opacity:1;fill-rule:nonzero;stroke:#030000;stroke-width:0.09375;stroke-linecap:butt;stroke-linejoin:miter;stroke-miterlimit:10;stroke-dasharray:none;stroke-opacity:1"
       id="path321" /><path
       d="M 148.6,158 L 149.2,158 C 149.1,157.9 148.8,157.6 148.6,157.4 L 148.6,158 z"
       style="fill:#ffe5cd;fill-opacity:1;fill-rule:nonzero;stroke:#ffe5cd;stroke-width:0.09375;stroke-linecap:butt;stroke-linejoin:miter;stroke-miterlimit:10;stroke-dasharray:none;stroke-opacity:1"
       id="path323" /><path
       d="M 148,157.3 L 148.6,157.4 C 148.5,157.4 148.2,157.4 148,157.3 z"
       style="fill:#ffe5cd;fill-opacity:1;fill-rule:nonzero;stroke:#ffe5cd;stroke-width:0.09375;stroke-linecap:butt;stroke-linejoin:miter;stroke-miterlimit:10;stroke-dasharray:none;stroke-opacity:1"
       id="path325" /><path
       d="M 187.1,136.4 C 181.5,141.9 181.2,150.5 183.5,157.5 C 183.4,153.4 182.3,149.2 183.6,145.2 C 185.7,139.4 190.4,134.6 196.3,132.6 C 200.1,131.2 204.1,131.1 208.1,130.9 C 200.8,130.1 192.8,131.4 187.1,136.4 z"
       style="fill:#030000;fill-opacity:1;fill-rule:nonzero;stroke:#030000;stroke-width:0.09375;stroke-linecap:butt;stroke-linejoin:miter;stroke-miterlimit:10;stroke-dasharray:none;stroke-opacity:1"
       id="path327" /><path
       d="M 212.4,148.7 C 215.4,155 222.8,157.8 229.4,156.6 C 229.4,145.2 229.3,133.9 229.5,122.5 C 225.2,122.7 221.6,125.4 218.2,127.6 C 211.4,131.9 208.4,141.6 212.4,148.7 z"
       style="fill:#01ccff;fill-opacity:1;fill-rule:nonzero;stroke:#01ccff;stroke-width:0.09375;stroke-linecap:butt;stroke-linejoin:miter;stroke-miterlimit:10;stroke-dasharray:none;stroke-opacity:1"
       id="path329" /><path
       d="M 112.5,155.1 C 114.3,154.7 112.9,150.9 111.3,151.6 C 110.5,152.8 111.2,154.6 112.5,155.1 z"
       style="fill:#d45b36;fill-opacity:1;fill-rule:nonzero;stroke:#d45b36;stroke-width:0.09375;stroke-linecap:butt;stroke-linejoin:miter;stroke-miterlimit:10;stroke-dasharray:none;stroke-opacity:1"
       id="path331" /><path
       d="M 77.4,124.2 C 93.6,134.8 109.7,145.7 126,156.2 C 127.1,155.7 128.2,155.2 129.4,154.7 C 128.4,154.6 126.5,154.6 125.6,154.5 C 125.9,153.9 126.6,152.7 126.9,152 L 127,151.9 C 124.9,152.4 122.5,152.5 121.2,150.2 C 123.9,150.2 126.6,150.2 129.3,150.3 L 128.1,149.5 C 122.7,145.5 117,141.9 111.6,138 C 109.5,136.7 107.5,135 105.1,134.3 C 102.3,134.2 99.5,134.8 96.7,135 C 96.8,133.3 98.2,132.1 98.3,130.4 C 97.5,127.9 96.2,125.5 95.5,122.9 L 94,123.2 C 94.8,125.4 95.9,127.4 96.4,129.6 C 97,131.2 94.9,131.3 94,132 C 93.7,132.1 93.1,132.5 92.8,132.6 C 91.9,126.8 88.5,121.4 89.8,115.4 C 90.5,109.6 94.7,104.4 100.1,102.4 C 108.6,99.2 117.7,97.9 126.6,96.1 C 131.2,94.6 135.9,92.8 139.3,89.3 L 139.3,88.7 C 135.4,90.4 131.9,92.9 127.8,94.1 C 118.6,96.7 108.5,96 99.7,100 C 92.2,103.2 87.7,111.5 88.4,119.5 C 88.2,123.3 90.6,126.7 90.1,130.4 C 73.8,119.1 56.8,108.8 40.6,97.3 C 43.4,95.6 46.4,94.1 49.2,92.3 C 41.7,90.9 34,90 26.6,88 C 22.8,86.9 19.3,85.3 15.7,84.1 C 23.9,92 29.9,101.8 35.5,111.6 C 35.8,108.3 36.4,104.9 37.4,101.7 C 49.2,109.2 60.6,117.5 72.8,124.5 C 71.3,123 69.7,121.5 67.9,120.4 C 55.9,112.8 44.3,104.6 32.1,97.2 C 33.4,98.6 34.6,100 35.9,101.3 C 35.3,102.8 34.7,104.3 34,105.8 C 30.3,100 26.4,94.4 22.8,88.6 C 30,90.2 37.1,91.8 44.3,93.2 C 42.8,94.1 41.4,95.5 39.7,95.9 C 37.6,95.8 35.6,95.1 33.5,94.9 C 47.9,105 62.7,114.4 77.4,124.2 z"
       style="fill:#420e07;fill-opacity:1;fill-rule:nonzero;stroke:#420e07;stroke-width:0.09375;stroke-linecap:butt;stroke-linejoin:miter;stroke-miterlimit:10;stroke-dasharray:none;stroke-opacity:1"
       id="path333" /><path
       d="M 125.6,154.5 C 126.5,154.6 128.4,154.6 129.4,154.7 C 130.3,154.6 132,154.5 132.9,154.5 C 131.5,152.5 129.3,151.3 126.9,152 C 126.6,152.7 125.9,153.9 125.6,154.5 z"
       style="fill:#a7161a;fill-opacity:1;fill-rule:nonzero;stroke:#a7161a;stroke-width:0.09375;stroke-linecap:butt;stroke-linejoin:miter;stroke-miterlimit:10;stroke-dasharray:none;stroke-opacity:1"
       id="path335" /><path
       d="M 108.4,152.3 C 110.5,152.1 109.3,147.7 107.4,148.7 C 106.5,149.8 107.1,151.8 108.4,152.3 z"
       style="fill:#b3593d;fill-opacity:1;fill-rule:nonzero;stroke:#b3593d;stroke-width:0.09375;stroke-linecap:butt;stroke-linejoin:miter;stroke-miterlimit:10;stroke-dasharray:none;stroke-opacity:1"
       id="path337" /><path
       d="M 121.2,150.2 C 122.5,152.5 124.9,152.4 127,151.9 C 127.6,151.5 128.7,150.7 129.3,150.3 C 126.6,150.2 123.9,150.2 121.2,150.2 z"
       style="fill:#a7161a;fill-opacity:1;fill-rule:nonzero;stroke:#a7161a;stroke-width:0.09375;stroke-linecap:butt;stroke-linejoin:miter;stroke-miterlimit:10;stroke-dasharray:none;stroke-opacity:1"
       id="path339" /><path
       d="M 128.1,149.5 C 130.5,150.9 133,154.1 136,152.1 C 136.1,141.2 137.5,130.3 138,119.4 C 138.6,110.6 138.9,101.7 140,93 C 138.9,93.9 137.6,94.5 136.3,95.1 C 135.7,95.3 134.6,95.7 134,95.9 C 133.4,96.1 132.3,96.7 131.8,97 C 130.6,98 129.2,98.5 127.7,98.7 C 119.8,101.2 111.5,102.7 104,106.4 C 98,109.4 94.5,116.2 95.5,122.9 C 96.2,125.5 97.5,127.9 98.3,130.4 C 98.2,132.1 96.8,133.3 96.7,135 C 99.5,134.8 102.3,134.2 105.1,134.3 C 107.5,135 109.5,136.7 111.6,138 C 117,141.9 122.7,145.5 128.1,149.5 z"
       style="fill:#ffcc00;fill-opacity:1;fill-rule:nonzero;stroke:#ffcc00;stroke-width:0.09375;stroke-linecap:butt;stroke-linejoin:miter;stroke-miterlimit:10;stroke-dasharray:none;stroke-opacity:1"
       id="path341" /><path
       d="M 136,152.1 C 136.5,152.3 137.3,152.7 137.8,152.9 C 137.8,152.5 137.8,151.5 137.8,151.1 C 138.2,135.7 139.8,120.4 140.6,105 C 141.1,100.4 140.7,95.7 142,91.2 L 142.2,90 C 142.2,88.6 142.2,87.1 142.3,85.7 C 141.8,81.2 142.5,76.8 142.8,72.4 L 141.8,71.9 C 141.6,72.6 141.3,73.9 141.1,74.5 C 141.1,74.8 141,75.4 141,75.7 C 140.5,80 140.37653,84.146947 140.59485,88.193893 L 139.47042,89.994847 C 140.10611,92.508015 140,91 140.1,91.6 L 140.2,92.2 L 140,93 C 138.9,101.7 138.6,110.6 138,119.4 C 137.5,130.3 136.1,141.2 136,152.1 z"
       style="fill:#420e07;fill-opacity:1;fill-rule:nonzero;stroke:#420e07;stroke-width:0.09375;stroke-linecap:butt;stroke-linejoin:miter;stroke-miterlimit:10;stroke-dasharray:none;stroke-opacity:1"
       id="path343"
       sodipodi:nodetypes="cccccccccccccccccc" /><path
       d="M 103.7,145.8 C 103.6,147.9 104.1,150 105.7,151.5 C 105.4,149.5 106.4,146.5 103.7,145.8 z"
       style="fill:#cb6037;fill-opacity:1;fill-rule:nonzero;stroke:#cb6037;stroke-width:0.09375;stroke-linecap:butt;stroke-linejoin:miter;stroke-miterlimit:10;stroke-dasharray:none;stroke-opacity:1"
       id="path345" /><path
       d="M 117.6,148.8 C 119.9,150.6 122.7,149.6 125.2,148.9 C 122.8,147.5 120.1,147.9 117.6,148.8 z"
       style="fill:#91251b;fill-opacity:1;fill-rule:nonzero;stroke:#91251b;stroke-width:0.09375;stroke-linecap:butt;stroke-linejoin:miter;stroke-miterlimit:10;stroke-dasharray:none;stroke-opacity:1"
       id="path347" /><path
       d="M 101.3,148.1 C 102.6,147.4 102,144.8 100.8,144.1 C 99.1,144.7 99.9,147.5 101.3,148.1 z"
       style="fill:#ff815a;fill-opacity:1;fill-rule:nonzero;stroke:#ff815a;stroke-width:0.09375;stroke-linecap:butt;stroke-linejoin:miter;stroke-miterlimit:10;stroke-dasharray:none;stroke-opacity:1"
       id="path349" /><path
       d="M 114.3,145.2 C 115.4,147.3 117.6,148.5 119.8,147.1 C 120.8,143.8 116.1,145.7 114.3,145.2 z"
       style="fill:#9c1f1e;fill-opacity:1;fill-rule:nonzero;stroke:#9c1f1e;stroke-width:0.09375;stroke-linecap:butt;stroke-linejoin:miter;stroke-miterlimit:10;stroke-dasharray:none;stroke-opacity:1"
       id="path351" /><path
       d="M 97.3,145.1 C 99.3,145 98.1,140.9 96.4,141.6 C 95.6,142.7 96.2,144.5 97.3,145.1 z"
       style="fill:#cb6037;fill-opacity:1;fill-rule:nonzero;stroke:#cb6037;stroke-width:0.09375;stroke-linecap:butt;stroke-linejoin:miter;stroke-miterlimit:10;stroke-dasharray:none;stroke-opacity:1"
       id="path353" /><path
       d="M 111.5,143.9 C 111.4,145.8 116,144.9 116.6,143.6 C 115.1,142.7 112.9,143 111.5,143.9 z"
       style="fill:#98282b;fill-opacity:1;fill-rule:nonzero;stroke:#98282b;stroke-width:0.09375;stroke-linecap:butt;stroke-linejoin:miter;stroke-miterlimit:10;stroke-dasharray:none;stroke-opacity:1"
       id="path355" /><path
       d="M 107.3,140.1 C 107.6,143.3 111.2,142.5 113.5,143.1 C 113.4,142.2 113.4,141.3 113.4,140.4 C 111.4,140.3 109.3,140.2 107.3,140.1 z"
       style="fill:#96140e;fill-opacity:1;fill-rule:nonzero;stroke:#96140e;stroke-width:0.09375;stroke-linecap:butt;stroke-linejoin:miter;stroke-miterlimit:10;stroke-dasharray:none;stroke-opacity:1"
       id="path357" /><path
       d="M 102.7,138.4 C 104.4,141.5 107.9,139.7 110.4,138.9 C 108,137.6 105.3,138 102.7,138.4 z"
       style="fill:#a71720;fill-opacity:1;fill-rule:nonzero;stroke:#a71720;stroke-width:0.09375;stroke-linecap:butt;stroke-linejoin:miter;stroke-miterlimit:10;stroke-dasharray:none;stroke-opacity:1"
       id="path359" /><path
       d="M 100.1,135.4 C 101.1,138.8 104.6,137.6 106.4,135.6 C 104.3,135.5 102.2,135.4 100.1,135.4 z"
       style="fill:#942727;fill-opacity:1;fill-rule:nonzero;stroke:#942727;stroke-width:0.09375;stroke-linecap:butt;stroke-linejoin:miter;stroke-miterlimit:10;stroke-dasharray:none;stroke-opacity:1"
       id="path361" /><path
       d="M 92.8,132.6 C 93.1,132.5 93.7,132.1 94,132 C 94.8,127.6 92.4,123.7 92.2,119.4 C 91.9,115.6 91.7,111.1 94.8,108.2 C 98.9,103.4 105.4,102.3 111.2,101.3 C 116.9,100.1 122.6,99.2 128.1,97.4 C 127.7,97.1 127,96.4 126.6,96.1 C 117.7,97.9 108.6,99.2 100.1,102.4 C 94.7,104.4 90.5,109.6 89.8,115.4 C 88.5,121.4 91.9,126.8 92.8,132.6 z"
       style="fill:#ac1c17;fill-opacity:1;fill-rule:nonzero;stroke:#ac1c17;stroke-width:0.09375;stroke-linecap:butt;stroke-linejoin:miter;stroke-miterlimit:10;stroke-dasharray:none;stroke-opacity:1"
       id="path363" /><path
       d="M 94,132 C 94.9,131.3 97,131.2 96.4,129.6 C 95.9,127.4 94.8,125.4 94,123.2 C 93.3,120.9 92.8,118.5 93,116 C 93.5,110.1 98.4,105.2 104.2,104.5 C 106.7,103.6 108.9,102.4 111.2,101.3 C 105.4,102.3 98.9,103.4 94.8,108.2 C 91.7,111.1 91.9,115.6 92.2,119.4 C 92.4,123.7 94.8,127.6 94,132 z"
       style="fill:#72100e;fill-opacity:1;fill-rule:nonzero;stroke:#72100e;stroke-width:0.09375;stroke-linecap:butt;stroke-linejoin:miter;stroke-miterlimit:10;stroke-dasharray:none;stroke-opacity:1"
       id="path365" /><path
       d="M 209.7,128 C 211.6,128.1 213.1,127.1 214.5,125.9 C 218.6,122.4 223.9,120 229.4,119.7 C 229.5,111 229.4,102.4 229.4,93.7 C 224.2,94.9 218.5,98.8 219.3,104.8 C 221.6,102.6 221.8,98.9 224.5,96.9 C 225.8,96.7 227.1,96.6 228.4,96.5 C 226.5,97.7 223.8,98.2 223,100.5 C 222.3,102.1 222,103.7 221.6,105.3 C 218.1,105 214.6,103.5 211.2,104.6 C 204.4,106.4 198.9,113.2 199.4,120.4 C 199.4,122.5 199.5,124.6 199.7,126.7 C 202.8,126.5 205.9,126.6 209,127 C 207.3,124.7 205.7,121.8 206.4,118.8 C 207.8,113 212.8,109 217.9,106.5 C 213.8,110.4 209.5,114.7 208.6,120.5 C 208.6,123 209.5,125.5 209.7,128 z"
       style="fill:#01ccff;fill-opacity:1;fill-rule:nonzero;stroke:#01ccff;stroke-width:0.09375;stroke-linecap:butt;stroke-linejoin:miter;stroke-miterlimit:10;stroke-dasharray:none;stroke-opacity:1"
       id="path367" /><path
       d="M 72.8,124.5 C 74.5,125.2 76.1,125.9 77.6,126.8 C 77.6,126.1 77.4,124.8 77.4,124.2 C 62.7,114.4 47.9,105 33.5,94.9 C 32.3,94.9 31,94.9 29.8,94.9 C 30.5,95.7 31.3,96.5 32.1,97.2 C 44.3,104.6 55.9,112.8 67.9,120.4 C 69.7,121.5 71.3,123 72.8,124.5 z"
       style="fill:#b83b1a;fill-opacity:1;fill-rule:nonzero;stroke:#b83b1a;stroke-width:0.09375;stroke-linecap:butt;stroke-linejoin:miter;stroke-miterlimit:10;stroke-dasharray:none;stroke-opacity:1"
       id="path369" /><path
       d="M 94,123.2 L 95.5,122.9 C 94.5,116.2 98,109.4 104,106.4 C 111.5,102.7 119.8,101.2 127.7,98.7 C 127.8,98.4 128,97.7 128.1,97.4 C 122.6,99.2 116.9,100.1 111.2,101.3 C 108.9,102.4 106.7,103.6 104.2,104.5 C 99.1,106.7 95.3,111 93,116 C 92.8,118.5 93.3,120.9 94,123.2 z"
       style="fill:#450900;fill-opacity:1;fill-rule:nonzero;stroke:#450900;stroke-width:0.09375;stroke-linecap:butt;stroke-linejoin:miter;stroke-miterlimit:10;stroke-dasharray:none;stroke-opacity:1"
       id="path371" /><path
       d="M 93,116 C 95.3,111 99.1,106.7 104.2,104.5 C 98.4,105.2 93.5,110.1 93,116 z"
       style="fill:#82212b;fill-opacity:1;fill-rule:nonzero;stroke:#82212b;stroke-width:0.09375;stroke-linecap:butt;stroke-linejoin:miter;stroke-miterlimit:10;stroke-dasharray:none;stroke-opacity:1"
       id="path373" /><path
       d="M 22.8,88.6 C 26.4,94.4 30.3,100 34,105.8 C 34.7,104.3 35.3,102.8 35.9,101.3 C 34.6,100 33.4,98.6 32.1,97.2 C 31.3,96.5 30.5,95.7 29.8,94.9 C 31,94.9 32.3,94.9 33.5,94.9 C 35.6,95.1 37.6,95.8 39.7,95.9 C 41.4,95.5 42.8,94.1 44.3,93.2 C 37.1,91.8 30,90.2 22.8,88.6 z"
       style="fill:#f50701;fill-opacity:1;fill-rule:nonzero;stroke:#f50701;stroke-width:0.09375;stroke-linecap:butt;stroke-linejoin:miter;stroke-miterlimit:10;stroke-dasharray:none;stroke-opacity:1"
       id="path375" /><path
       d="M 217.3,101.1 C 217.8,100.7 217.8,100.7 217.3,101.1 z"
       style="fill:#01ccff;fill-opacity:1;fill-rule:nonzero;stroke:#01ccff;stroke-width:0.09375;stroke-linecap:butt;stroke-linejoin:miter;stroke-miterlimit:10;stroke-dasharray:none;stroke-opacity:1"
       id="path377" /><path
       d="M 127.7,98.7 C 129.2,98.5 130.6,98 131.8,97 L 131.5,96.3 C 130.3,96.1 128.8,96.2 128.1,97.4 C 128,97.7 127.8,98.4 127.7,98.7 z"
       style="fill:#420e07;fill-opacity:1;fill-rule:nonzero;stroke:#420e07;stroke-width:0.09375;stroke-linecap:butt;stroke-linejoin:miter;stroke-miterlimit:10;stroke-dasharray:none;stroke-opacity:1"
       id="path379" /><path
       d="M 128.1,97.4 C 128.8,96.2 130.3,96.1 131.5,96.3 C 132.1,96 133.1,95.4 133.7,95.1 C 134.3,94.9 135.5,94.6 136.1,94.5 C 136.6,92.8 138.3,91.7 140.1,91.6 C 140,91 139.8,89.6 139.7,89 L 139.3,89.3 C 135.9,92.8 131.2,94.6 126.6,96.1 C 127,96.4 127.7,97.1 128.1,97.4 z"
       style="fill:#ac1911;fill-opacity:1;fill-rule:nonzero;stroke:#ac1911;stroke-width:0.09375;stroke-linecap:butt;stroke-linejoin:miter;stroke-miterlimit:10;stroke-dasharray:none;stroke-opacity:1"
       id="path381" /><path
       d="M 131.8,97 C 132.3,96.7 133.4,96.1 134,95.9 L 133.7,95.1 C 133.1,95.4 132.1,96 131.5,96.3 L 131.8,97 z"
       style="fill:#450900;fill-opacity:1;fill-rule:nonzero;stroke:#450900;stroke-width:0.09375;stroke-linecap:butt;stroke-linejoin:miter;stroke-miterlimit:10;stroke-dasharray:none;stroke-opacity:1"
       id="path383" /><path
       d="M 134,95.9 C 134.6,95.7 135.7,95.3 136.3,95.1 L 136.1,94.5 C 135.5,94.6 134.3,94.9 133.7,95.1 L 134,95.9 z"
       style="fill:#420e07;fill-opacity:1;fill-rule:nonzero;stroke:#420e07;stroke-width:0.09375;stroke-linecap:butt;stroke-linejoin:miter;stroke-miterlimit:10;stroke-dasharray:none;stroke-opacity:1"
       id="path385" /><path
       d="M 136.3,95.1 C 137.6,94.5 138.9,93.9 140,93 L 140.2,92.2 L 140.1,91.6 C 138.3,91.7 136.6,92.8 136.1,94.5 L 136.3,95.1 z"
       style="fill:#450900;fill-opacity:1;fill-rule:nonzero;stroke:#450900;stroke-width:0.09375;stroke-linecap:butt;stroke-linejoin:miter;stroke-miterlimit:10;stroke-dasharray:none;stroke-opacity:1"
       id="path387" /><path
       d="M 142,91.2 C 145.4,88.6 148.5,85.4 149.8,81.3 C 151.3,77.3 150.5,72.9 148.3,69.4 C 147.9,69.8 147.3,70.5 146.9,70.9 C 147.4,74.4 148.7,77.9 148.4,81.4 C 147.4,85 144.5,87.3 142.2,90 L 142,91.2 z"
       style="fill:#450900;fill-opacity:1;fill-rule:nonzero;stroke:#450900;stroke-width:0.09375;stroke-linecap:butt;stroke-linejoin:miter;stroke-miterlimit:10;stroke-dasharray:none;stroke-opacity:1"
       id="path389" /><path
       d="M 139.3,89.3 L 139.7,89 L 139.6,88.5 L 139.3,88.7 L 139.3,89.3 z"
       style="fill:#490f00;fill-opacity:1;fill-rule:nonzero;stroke:#490f00;stroke-width:0.09375;stroke-linecap:butt;stroke-linejoin:miter;stroke-miterlimit:10;stroke-dasharray:none;stroke-opacity:1"
       id="path391" /><path
       d="M 142.2,90 C 144.5,87.3 147.4,85 148.4,81.4 C 148.7,77.9 147.4,74.4 146.9,70.9 L 146.1,71.9 C 146,72.6 145.8,74.1 145.7,74.8 C 146.1,78.8 144.3,82.3 142.3,85.7 C 142.2,87.1 142.2,88.6 142.2,90 z"
       style="fill:#941411;fill-opacity:1;fill-rule:nonzero;stroke:#941411;stroke-width:0.09375;stroke-linecap:butt;stroke-linejoin:miter;stroke-miterlimit:10;stroke-dasharray:none;stroke-opacity:1"
       id="path393" /><path
       d="M 142.8,72.4 C 142.5,76.8 141.8,81.2 142.3,85.7 C 144.3,82.3 146.1,78.8 145.7,74.8 C 145.4,74.4 144.9,73.7 144.6,73.3 C 144.1,73.1 143.2,72.6 142.8,72.4 z"
       style="fill:#ffcc00;fill-opacity:1;fill-rule:nonzero;stroke:#ffcc00;stroke-width:0.09375;stroke-linecap:butt;stroke-linejoin:miter;stroke-miterlimit:10;stroke-dasharray:none;stroke-opacity:1"
       id="path395" /><path
       d="M 136.9,74.6 C 137.7,76 139.6,75.6 141,75.7 C 141,75.4 141.1,74.8 141.1,74.5 C 140.1,73.6 139.2,72.5 138.5,71.3 C 139.3,69.7 141.2,69 142.7,68 C 142.4,69.3 142.1,70.6 141.8,71.9 L 142.8,72.4 C 143.2,72.6 144.1,73.1 144.6,73.3 C 144.9,73.7 145.4,74.4 145.7,74.8 C 145.8,74.1 146,72.6 146.1,71.9 L 146.9,70.9 C 147.3,70.5 147.9,69.8 148.3,69.4 C 145.8,68 143,66.7 140.1,67.5 C 137.2,68.2 135.2,72 136.9,74.6 z"
       style="fill:#490f00;fill-opacity:1;fill-rule:nonzero;stroke:#490f00;stroke-width:0.09375;stroke-linecap:butt;stroke-linejoin:miter;stroke-miterlimit:10;stroke-dasharray:none;stroke-opacity:1"
       id="path397" /><path
       d="M 138.5,71.3 C 139.2,72.5 140.1,73.6 141.1,74.5 C 141.3,73.9 141.6,72.6 141.8,71.9 C 142.1,70.6 142.4,69.3 142.7,68 C 141.2,69 139.3,69.7 138.5,71.3 z"
       style="fill:#ae231c;fill-opacity:1;fill-rule:nonzero;stroke:#ae231c;stroke-width:0.09375;stroke-linecap:butt;stroke-linejoin:miter;stroke-miterlimit:10;stroke-dasharray:none;stroke-opacity:1"
       id="path399" /></g></svg>